<svg xmlns="http://www.w3.org/2000/svg" viewBox="0 0 117.71 432.71"><defs><style>.cls-1{fill:#b3b3b3;stroke-width:2px;}.cls-1,.cls-2{stroke:#000;stroke-linecap:round;stroke-linejoin:round;}.cls-2{fill:none;stroke-width:0.25px;stroke-dasharray:7 7;}</style></defs><g id="A-Counter"><g id="LWPOLYLINE"><polyline class="cls-1" points="117.35 324.35 41.6 324.35 41.6 9.35 117.35 9.35"/></g></g><g id="A-Cabinetry"><g id="LINE"><line class="cls-2" x1="45.35" y1="430.1" x2="45.35" y2="326.6"/></g><g id="LWPOLYLINE-2" data-name="LWPOLYLINE"><polygon class="cls-2" points="45.35 324.35 45.35 326.6 115.1 326.6 115.1 430.1 45.35 430.1 45.35 432.35 117.35 432.35 117.35 324.35 45.35 324.35"/></g><g id="LWPOLYLINE-3" data-name="LWPOLYLINE"><rect class="cls-2" x="1.98" y="344.57" width="51.75" height="2.25" transform="translate(-236.29 120.95) rotate(-45)"/></g><g id="LWPOLYLINE-4" data-name="LWPOLYLINE"><rect class="cls-2" x="26.73" y="385.14" width="2.25" height="51.75" transform="translate(-282.47 140.08) rotate(-45)"/></g><g id="ARC"><path class="cls-2" d="M8.76,363.2a51.78,51.78,0,0,0,36.59,15.15"/></g><g id="ARC-2" data-name="ARC"><path class="cls-2" d="M45.35,378.35A51.78,51.78,0,0,0,8.76,393.51"/></g><g id="LWPOLYLINE-5" data-name="LWPOLYLINE"><polyline class="cls-2" points="117.35 324.35 45.35 324.35 45.35 216.35 117.35 216.35"/></g><g id="LWPOLYLINE-6" data-name="LWPOLYLINE"><line class="cls-2" x1="117.35" y1="216.35" x2="45.35" y2="324.35"/></g><g id="LWPOLYLINE-7" data-name="LWPOLYLINE"><line class="cls-2" x1="117.35" y1="324.35" x2="45.35" y2="216.35"/></g><g id="LWPOLYLINE-8" data-name="LWPOLYLINE"><polyline class="cls-2" points="117.35 216.35 45.35 216.35 45.35 144.35 117.35 144.35"/></g><g id="LWPOLYLINE-9" data-name="LWPOLYLINE"><polyline class="cls-2" points="117.35 144.35 45.35 144.35 45.35 63.35 117.35 63.35"/></g><g id="LWPOLYLINE-10" data-name="LWPOLYLINE"><polyline class="cls-2" points="117.35 63.35 45.35 63.35 45.35 18.35 117.35 18.35"/></g></g></svg>