<svg xmlns="http://www.w3.org/2000/svg" viewBox="0 0 117.71 612.71"><defs><style>.cls-1{fill:#b3b3b3;stroke-width:2px;}.cls-1,.cls-2,.cls-3{stroke:#000;stroke-linecap:round;stroke-linejoin:round;}.cls-2,.cls-3{fill:none;}.cls-2{stroke-width:0.5px;}.cls-3{stroke-width:0.25px;stroke-dasharray:7 7;}</style></defs><g id="A-Counter"><g id="LWPOLYLINE"><polyline class="cls-1" points="117.35 378.35 41.6 378.35 41.6 9.35 117.35 9.35"/></g></g><g id="A-Walls"><g id="LWPOLYLINE-2" data-name="LWPOLYLINE"><line class="cls-2" x1="0.35" y1="612.35" x2="0.35" y2="0.35"/></g></g><g id="A-Cabinetry"><g id="LWPOLYLINE-3" data-name="LWPOLYLINE"><polyline class="cls-3" points="117.35 252.35 45.35 252.35 45.35 162.35 117.35 162.35"/></g><g id="LWPOLYLINE-4" data-name="LWPOLYLINE"><line class="cls-3" x1="117.35" y1="162.35" x2="45.35" y2="252.35"/></g><g id="LWPOLYLINE-5" data-name="LWPOLYLINE"><line class="cls-3" x1="117.35" y1="252.35" x2="45.35" y2="162.35"/></g><g id="LINE"><line class="cls-3" x1="45.35" y1="610.1" x2="45.35" y2="497.6"/></g><g id="LWPOLYLINE-6" data-name="LWPOLYLINE"><polygon class="cls-3" points="45.35 495.35 45.35 497.6 115.1 497.6 115.1 610.1 45.35 610.1 45.35 612.35 117.35 612.35 117.35 495.35 45.35 495.35"/></g><g id="LWPOLYLINE-7" data-name="LWPOLYLINE"><rect class="cls-3" x="-1.86" y="517.16" width="56.25" height="2.25" transform="translate(-358.79 170.37) rotate(-45)"/></g><g id="LWPOLYLINE-8" data-name="LWPOLYLINE"><rect class="cls-3" x="25.14" y="561.3" width="2.25" height="56.25" transform="translate(-409.09 191.21) rotate(-45)"/></g><g id="ARC"><path class="cls-3" d="M5.37,537.43A56,56,0,0,0,45,553.85"/></g><g id="ARC-2" data-name="ARC"><path class="cls-3" d="M45,553.85A56.06,56.06,0,0,0,5.37,570.27"/></g><g id="LWPOLYLINE-9" data-name="LWPOLYLINE"><polyline class="cls-3" points="117.35 378.35 45.35 378.35 45.35 324.35 117.35 324.35"/></g><g id="LWPOLYLINE-10" data-name="LWPOLYLINE"><polyline class="cls-3" points="117.35 162.35 45.35 162.35 45.35 90.35 117.35 90.35"/></g><g id="LWPOLYLINE-11" data-name="LWPOLYLINE"><polyline class="cls-3" points="117.35 324.35 45.35 324.35 45.35 252.35 117.35 252.35"/></g><g id="LINE-2" data-name="LINE"><line class="cls-3" x1="45.35" y1="493.1" x2="45.35" y2="380.6"/></g><g id="LWPOLYLINE-12" data-name="LWPOLYLINE"><polygon class="cls-3" points="45.35 378.35 45.35 380.6 115.1 380.6 115.1 493.1 45.35 493.1 45.35 495.35 117.35 495.35 117.35 378.35 45.35 378.35"/></g><g id="LWPOLYLINE-13" data-name="LWPOLYLINE"><rect class="cls-3" x="-1.86" y="400.16" width="56.25" height="2.25" transform="translate(-276.06 136.1) rotate(-45)"/></g><g id="LWPOLYLINE-14" data-name="LWPOLYLINE"><rect class="cls-3" x="25.14" y="444.3" width="2.25" height="56.25" transform="translate(-326.36 156.94) rotate(-45)"/></g><g id="ARC-3" data-name="ARC"><path class="cls-3" d="M5.37,420.43A56,56,0,0,0,45,436.85"/></g><g id="ARC-4" data-name="ARC"><path class="cls-3" d="M45,436.85A56.06,56.06,0,0,0,5.37,453.27"/></g><g id="LWPOLYLINE-15" data-name="LWPOLYLINE"><polyline class="cls-3" points="117.35 90.35 45.35 90.35 45.35 18.35 117.35 18.35"/></g></g></svg>