<svg xmlns="http://www.w3.org/2000/svg" viewBox="0 0 117.71 468.71"><defs><style>.cls-1{fill:#b3b3b3;stroke-width:2px;}.cls-1,.cls-2{stroke:#000;stroke-linecap:round;stroke-linejoin:round;}.cls-2{fill:none;stroke-width:0.25px;stroke-dasharray:7 7;}</style></defs><g id="A-Counter"><g id="LWPOLYLINE"><polyline class="cls-1" points="117.35 378.35 41.6 378.35 41.6 117.35 117.35 117.35"/></g></g><g id="A-Cabinetry"><g id="LWPOLYLINE-2" data-name="LWPOLYLINE"><polyline class="cls-2" points="117.35 306.35 45.35 306.35 45.35 189.35 117.35 189.35"/></g><g id="LWPOLYLINE-3" data-name="LWPOLYLINE"><line class="cls-2" x1="117.35" y1="189.35" x2="45.35" y2="306.35"/></g><g id="LWPOLYLINE-4" data-name="LWPOLYLINE"><line class="cls-2" x1="117.35" y1="306.35" x2="45.35" y2="189.35"/></g><g id="LINE"><line class="cls-2" x1="45.35" y1="466.1" x2="45.35" y2="380.6"/></g><g id="LWPOLYLINE-5" data-name="LWPOLYLINE"><polygon class="cls-2" points="45.35 378.35 45.35 380.6 115.1 380.6 115.1 466.1 45.35 466.1 45.35 468.35 117.35 468.35 117.35 378.35 45.35 378.35"/></g><g id="LWPOLYLINE-6" data-name="LWPOLYLINE"><rect class="cls-2" x="9.66" y="395.39" width="42.75" height="2.25" transform="translate(-271.29 138.08) rotate(-45)"/></g><g id="LWPOLYLINE-7" data-name="LWPOLYLINE"><rect class="cls-2" x="29.91" y="428.82" width="2.25" height="42.75" transform="translate(-309.25 153.8) rotate(-45)"/></g><g id="ARC"><path class="cls-2" d="M15.55,410.72A43.1,43.1,0,0,0,46,423.35"/></g><g id="ARC-2" data-name="ARC"><path class="cls-2" d="M46,423.35A43.11,43.11,0,0,0,15.55,436"/></g><g id="LWPOLYLINE-8" data-name="LWPOLYLINE"><polyline class="cls-2" points="117.35 378.35 45.35 378.35 45.35 306.35 117.35 306.35"/></g><g id="LWPOLYLINE-9" data-name="LWPOLYLINE"><polyline class="cls-2" points="117.35 189.35 45.35 189.35 45.35 117.35 117.35 117.35"/></g><g id="LINE-2" data-name="LINE"><line class="cls-2" x1="45.35" y1="115.1" x2="45.35" y2="11.6"/></g><g id="LWPOLYLINE-10" data-name="LWPOLYLINE"><polygon class="cls-2" points="45.35 9.35 45.35 11.6 115.1 11.6 115.1 115.1 45.35 115.1 45.35 117.35 117.35 117.35 117.35 9.35 45.35 9.35"/></g><g id="LWPOLYLINE-11" data-name="LWPOLYLINE"><rect class="cls-2" x="1.98" y="29.57" width="51.75" height="2.25" transform="translate(-13.55 28.69) rotate(-45)"/></g><g id="LWPOLYLINE-12" data-name="LWPOLYLINE"><rect class="cls-2" x="26.73" y="70.14" width="2.25" height="51.75" transform="translate(-59.73 47.82) rotate(-45)"/></g><g id="ARC-3" data-name="ARC"><path class="cls-2" d="M8.76,48.2A51.78,51.78,0,0,0,45.35,63.35"/></g><g id="ARC-4" data-name="ARC"><path class="cls-2" d="M45.35,63.35A51.78,51.78,0,0,0,8.76,78.51"/></g></g></svg>