<svg xmlns="http://www.w3.org/2000/svg" viewBox="0 0 117.71 423.71"><defs><style>.cls-1{fill:#b3b3b3;stroke-width:2px;}.cls-1,.cls-2{stroke:#000;stroke-linecap:round;stroke-linejoin:round;}.cls-2{fill:none;stroke-width:0.25px;stroke-dasharray:7 7;}</style></defs><g id="A-Counter"><g id="LWPOLYLINE"><polyline class="cls-1" points="117.35 315.35 41.6 315.35 41.6 9.35 117.35 9.35"/></g></g><g id="A-Cabinetry"><g id="LINE"><line class="cls-2" x1="45.35" y1="421.1" x2="45.35" y2="317.6"/></g><g id="LWPOLYLINE-2" data-name="LWPOLYLINE"><polygon class="cls-2" points="45.35 315.35 45.35 317.6 115.1 317.6 115.1 421.1 45.35 421.1 45.35 423.35 117.35 423.35 117.35 315.35 45.35 315.35"/></g><g id="LWPOLYLINE-3" data-name="LWPOLYLINE"><rect class="cls-2" x="1.98" y="335.57" width="51.75" height="2.25" transform="translate(-229.92 118.31) rotate(-45)"/></g><g id="LWPOLYLINE-4" data-name="LWPOLYLINE"><rect class="cls-2" x="26.73" y="376.14" width="2.25" height="51.75" transform="translate(-276.11 137.44) rotate(-45)"/></g><g id="ARC"><path class="cls-2" d="M8.76,354.2a51.78,51.78,0,0,0,36.59,15.15"/></g><g id="ARC-2" data-name="ARC"><path class="cls-2" d="M45.35,369.35A51.78,51.78,0,0,0,8.76,384.51"/></g><g id="LWPOLYLINE-5" data-name="LWPOLYLINE"><polyline class="cls-2" points="117.35 315.35 45.35 315.35 45.35 207.35 117.35 207.35"/></g><g id="LWPOLYLINE-6" data-name="LWPOLYLINE"><line class="cls-2" x1="117.35" y1="207.35" x2="45.35" y2="315.35"/></g><g id="LWPOLYLINE-7" data-name="LWPOLYLINE"><line class="cls-2" x1="117.35" y1="315.35" x2="45.35" y2="207.35"/></g><g id="LWPOLYLINE-8" data-name="LWPOLYLINE"><polyline class="cls-2" points="117.35 207.35 45.35 207.35 45.35 135.35 117.35 135.35"/></g><g id="LWPOLYLINE-9" data-name="LWPOLYLINE"><polyline class="cls-2" points="117.35 135.35 45.35 135.35 45.35 81.35 117.35 81.35"/></g><g id="LWPOLYLINE-10" data-name="LWPOLYLINE"><polyline class="cls-2" points="117.35 81.35 45.35 81.35 45.35 18.35 117.35 18.35"/></g></g></svg>