<svg xmlns="http://www.w3.org/2000/svg" viewBox="0 0 198.71 504.71"><defs><style>.cls-1{fill:#e6e6e6;}.cls-1,.cls-2,.cls-3,.cls-8{stroke:#000;}.cls-1,.cls-2,.cls-3,.cls-4,.cls-5,.cls-6,.cls-7,.cls-8,.cls-9{stroke-linecap:round;stroke-linejoin:round;}.cls-1,.cls-6,.cls-9{stroke-width:0.71px;}.cls-2,.cls-3,.cls-4,.cls-5,.cls-6,.cls-7,.cls-8,.cls-9{fill:none;}.cls-2,.cls-4{stroke-width:0.5px;}.cls-3,.cls-5,.cls-7{stroke-width:0.25px;}.cls-3,.cls-4{stroke-dasharray:5 5;}.cls-4,.cls-5{stroke:#666;}.cls-5{stroke-dasharray:9 8;}.cls-6{stroke:silver;}.cls-7{stroke:#333;stroke-dasharray:8 8;}.cls-9{stroke:#ff7f00;}</style></defs><g id="A-Counter"><g id="LWPOLYLINE"><polyline class="cls-1" points="16.86 132.35 16.86 171.35 67.85 171.35 67.85 90.35 16.86 90.35 16.86 129.35"/></g><g id="LWPOLYLINE-2" data-name="LWPOLYLINE"><polyline class="cls-1" points="0.35 504.35 76.1 504.35 76.1 441.35 0.35 441.35"/></g><g id="LWPOLYLINE-3" data-name="LWPOLYLINE"><polyline class="cls-1" points="0.35 333.35 76.1 333.35 76.1 270.35 0.35 270.35"/></g><g id="LWPOLYLINE-4" data-name="LWPOLYLINE"><polyline class="cls-1" points="0.35 180.35 76.1 180.35 76.1 0.35 0.35 0.35"/></g></g><g id="A-Appliances"><g id="LWPOLYLINE-5" data-name="LWPOLYLINE"><polyline class="cls-2" points="92.98 399.04 103.48 399.04 103.48 436.54 6.35 436.54 6.35 338.29 103.48 338.29 103.48 398.29 92.98 398.29"/></g><g id="LINE"><line class="cls-2" x1="92.98" y1="338.28" x2="92.98" y2="436.53"/></g><g id="LWPOLYLINE-6" data-name="LWPOLYLINE"><rect class="cls-2" x="103.48" y="393.23" width="6.75" height="4.12"/></g><g id="LWPOLYLINE-7" data-name="LWPOLYLINE"><rect class="cls-2" x="103.48" y="399.97" width="6.75" height="4.13"/></g><g id="LINE-2" data-name="LINE"><line class="cls-2" x1="76.85" y1="270.35" x2="76.85" y2="180.35"/></g><g id="LINE-3" data-name="LINE"><line class="cls-2" x1="76.85" y1="180.35" x2="0.35" y2="180.35"/></g><g id="LINE-4" data-name="LINE"><line class="cls-2" x1="76.85" y1="270.35" x2="0.35" y2="270.35"/></g><g id="LINE-5" data-name="LINE"><line class="cls-2" x1="0.35" y1="180.35" x2="0.35" y2="270.35"/></g><g id="LWPOLYLINE-8" data-name="LWPOLYLINE"><polyline class="cls-2" points="76.85 180.35 90.35 180.35 90.35 270.35 76.85 270.35"/></g><g id="LWPOLYLINE-9" data-name="LWPOLYLINE"><polyline class="cls-2" points="76.85 184.85 81.35 184.85 81.35 265.85 76.85 265.85"/></g><g id="LWPOLYLINE-10" data-name="LWPOLYLINE"><rect class="cls-2" x="0.35" y="9.35" width="70.12" height="72"/></g><g id="LWPOLYLINE-11" data-name="LWPOLYLINE"><polyline class="cls-2" points="70.48 81.35 77.6 81.35 77.6 9.35 70.48 9.35"/></g></g><g id="FAIR_HOUSING" data-name="FAIR HOUSING"><g id="LWPOLYLINE-12" data-name="LWPOLYLINE"><rect class="cls-3" x="106.48" y="311.28" width="90" height="144"/></g><g id="LWPOLYLINE-13" data-name="LWPOLYLINE"><rect class="cls-3" x="93.35" y="153.35" width="90" height="144"/></g><g id="LWPOLYLINE-14" data-name="LWPOLYLINE"><rect class="cls-3" x="79.1" y="58.85" width="90" height="144"/></g><g id="LWPOLYLINE-15" data-name="LWPOLYLINE"><rect class="cls-3" x="78.35" y="-26.65" width="90" height="144"/></g></g><g id="A-Cabinetry-Upper"><g id="LWPOLYLINE-16" data-name="LWPOLYLINE"><polyline class="cls-4" points="36.35 180.35 45.35 189.35 45.35 261.35 36.35 270.35"/></g></g><g id="A-Appliances_Detail" data-name="A-Appliances Detail"><g id="CIRCLE"><path class="cls-5" d="M10.86,252.35a10.5,10.5,0,1,1,10.49,10.5,10.49,10.49,0,0,1-10.49-10.5Z"/></g><g id="CIRCLE-2" data-name="CIRCLE"><path class="cls-5" d="M7.88,252.35a13.48,13.48,0,1,1,13.47,13.48A13.47,13.47,0,0,1,7.88,252.35Z"/></g><g id="CIRCLE-3" data-name="CIRCLE"><path class="cls-5" d="M10.86,198.35a10.5,10.5,0,1,1,10.49,10.5,10.49,10.49,0,0,1-10.49-10.5Z"/></g><g id="CIRCLE-4" data-name="CIRCLE"><path class="cls-5" d="M49.86,252.35a10.5,10.5,0,1,1,10.5,10.5,10.5,10.5,0,0,1-10.5-10.5Z"/></g><g id="CIRCLE-5" data-name="CIRCLE"><path class="cls-5" d="M49.86,198.35a10.5,10.5,0,1,1,10.5,10.5,10.5,10.5,0,0,1-10.5-10.5Z"/></g><g id="CIRCLE-6" data-name="CIRCLE"><path class="cls-5" d="M46.88,198.35a13.48,13.48,0,1,1,13.48,13.48,13.48,13.48,0,0,1-13.48-13.48Z"/></g><g id="LWPOLYLINE-17" data-name="LWPOLYLINE"><polyline class="cls-5" points="61.85 9.35 144.35 9.35 144.35 81.35 61.85 81.35"/></g><g id="LWPOLYLINE-18" data-name="LWPOLYLINE"><polyline class="cls-5" points="144.35 9.35 61.85 45.35 144.35 81.35"/></g></g><g id="P-PLUMBING_FIXTURES" data-name="P-PLUMBING FIXTURES"><g id="CIRCLE-7" data-name="CIRCLE"><path class="cls-6" d="M32.43,130.85a3.09,3.09,0,1,1,3.09,3.1,3.09,3.09,0,0,1-3.09-3.1Z"/></g><g id="LINE-6" data-name="LINE"><line class="cls-6" x1="32.81" y1="132.35" x2="10.35" y2="132.35"/></g><g id="LINE-7" data-name="LINE"><line class="cls-6" x1="10.35" y1="129.35" x2="32.81" y2="129.35"/></g><g id="LINE-8" data-name="LINE"><line class="cls-6" x1="19.03" y1="131.6" x2="7.86" y2="131.6"/></g><g id="LINE-9" data-name="LINE"><line class="cls-6" x1="19.03" y1="131.6" x2="19.03" y2="130.1"/></g><g id="LINE-10" data-name="LINE"><line class="cls-6" x1="19.03" y1="130.1" x2="7.86" y2="130.1"/></g><g id="ARC"><path class="cls-6" d="M10.67,130.1a2.91,2.91,0,1,0,0,1.5"/></g><g id="ARC-2" data-name="ARC"><path class="cls-6" d="M7.86,130.1a.75.75,0,0,0,0,1.5"/></g></g><g id="A-Cabinetry"><g id="LINE-11" data-name="LINE"><line class="cls-7" x1="0.35" y1="180.35" x2="72.35" y2="180.35"/></g><g id="LINE-12" data-name="LINE"><line class="cls-7" x1="0.35" y1="81.35" x2="72.35" y2="81.35"/></g><g id="LWPOLYLINE-19" data-name="LWPOLYLINE"><line class="cls-7" x1="72.35" y1="180.35" x2="72.35" y2="81.35"/></g><g id="LWPOLYLINE-20" data-name="LWPOLYLINE"><polyline class="cls-7" points="0.35 441.35 72.35 441.35 72.35 504.35 0.35 504.35"/></g><g id="LWPOLYLINE-21" data-name="LWPOLYLINE"><polyline class="cls-7" points="0.35 270.35 72.35 270.35 72.35 333.35 0.35 333.35"/></g></g><g id="A-Walls"><g id="LWPOLYLINE-22" data-name="LWPOLYLINE"><line class="cls-8" x1="0.35" y1="504.35" x2="0.35" y2="0.35"/></g></g><g id="A-Align"><g id="LWPOLYLINE-23" data-name="LWPOLYLINE"><rect class="cls-9" x="0.35" y="0.35" width="198" height="504"/></g></g></svg>