<svg xmlns="http://www.w3.org/2000/svg" viewBox="0 0 117.71 576.71"><defs><style>.cls-1{fill:#b3b3b3;stroke-width:2px;}.cls-1,.cls-2{stroke:#000;stroke-linecap:round;stroke-linejoin:round;}.cls-2{fill:none;stroke-width:0.25px;stroke-dasharray:7 7;}</style></defs><g id="A-Counter"><g id="LWPOLYLINE"><polyline class="cls-1" points="117.35 342.35 41.6 342.35 41.6 9.35 117.35 9.35"/></g></g><g id="A-Cabinetry"><g id="LWPOLYLINE-2" data-name="LWPOLYLINE"><polyline class="cls-2" points="117.35 198.35 45.35 198.35 45.35 108.35 117.35 108.35"/></g><g id="LWPOLYLINE-3" data-name="LWPOLYLINE"><line class="cls-2" x1="117.35" y1="108.35" x2="45.35" y2="198.35"/></g><g id="LWPOLYLINE-4" data-name="LWPOLYLINE"><line class="cls-2" x1="117.35" y1="198.35" x2="45.35" y2="108.35"/></g><g id="LINE"><line class="cls-2" x1="45.35" y1="574.1" x2="45.35" y2="461.6"/></g><g id="LWPOLYLINE-5" data-name="LWPOLYLINE"><polygon class="cls-2" points="45.35 459.35 45.35 461.6 115.1 461.6 115.1 574.1 45.35 574.1 45.35 576.35 117.35 576.35 117.35 459.35 45.35 459.35"/></g><g id="LWPOLYLINE-6" data-name="LWPOLYLINE"><rect class="cls-2" x="-1.86" y="481.16" width="56.25" height="2.25" transform="translate(-333.34 159.83) rotate(-45)"/></g><g id="LWPOLYLINE-7" data-name="LWPOLYLINE"><rect class="cls-2" x="25.14" y="525.3" width="2.25" height="56.25" transform="translate(-383.64 180.66) rotate(-45)"/></g><g id="ARC"><path class="cls-2" d="M5.37,501.43A56,56,0,0,0,45,517.85"/></g><g id="ARC-2" data-name="ARC"><path class="cls-2" d="M45,517.85A56.06,56.06,0,0,0,5.37,534.27"/></g><g id="LWPOLYLINE-8" data-name="LWPOLYLINE"><polyline class="cls-2" points="117.35 342.35 45.35 342.35 45.35 270.35 117.35 270.35"/></g><g id="LWPOLYLINE-9" data-name="LWPOLYLINE"><polyline class="cls-2" points="117.35 108.35 45.35 108.35 45.35 63.35 117.35 63.35"/></g><g id="LWPOLYLINE-10" data-name="LWPOLYLINE"><polyline class="cls-2" points="117.35 270.35 45.35 270.35 45.35 198.35 117.35 198.35"/></g><g id="LINE-2" data-name="LINE"><line class="cls-2" x1="45.35" y1="457.1" x2="45.35" y2="344.6"/></g><g id="LWPOLYLINE-11" data-name="LWPOLYLINE"><polygon class="cls-2" points="45.35 342.35 45.35 344.6 115.1 344.6 115.1 457.1 45.35 457.1 45.35 459.35 117.35 459.35 117.35 342.35 45.35 342.35"/></g><g id="LWPOLYLINE-12" data-name="LWPOLYLINE"><rect class="cls-2" x="-1.86" y="364.16" width="56.25" height="2.25" transform="translate(-250.6 125.56) rotate(-45)"/></g><g id="LWPOLYLINE-13" data-name="LWPOLYLINE"><rect class="cls-2" x="25.14" y="408.3" width="2.25" height="56.25" transform="translate(-300.9 146.4) rotate(-45)"/></g><g id="ARC-3" data-name="ARC"><path class="cls-2" d="M5.37,384.43A56,56,0,0,0,45,400.85"/></g><g id="ARC-4" data-name="ARC"><path class="cls-2" d="M45,400.85A56.06,56.06,0,0,0,5.37,417.27"/></g><g id="LWPOLYLINE-14" data-name="LWPOLYLINE"><polyline class="cls-2" points="117.35 63.35 45.35 63.35 45.35 18.35 117.35 18.35"/></g></g></svg>