<svg xmlns="http://www.w3.org/2000/svg" viewBox="0 0 539.21 540.71"><defs><style>.cls-1{fill:#e6e6e6;}.cls-1,.cls-2,.cls-3,.cls-4,.cls-9{stroke:#000;}.cls-1,.cls-10,.cls-2,.cls-3,.cls-4,.cls-5,.cls-6,.cls-7,.cls-8,.cls-9{stroke-linecap:round;stroke-linejoin:round;}.cls-1,.cls-10,.cls-2,.cls-7{stroke-width:0.71px;}.cls-2{fill:#fff;}.cls-10,.cls-3,.cls-4,.cls-5,.cls-6,.cls-7,.cls-8,.cls-9{fill:none;}.cls-3,.cls-5{stroke-width:0.5px;}.cls-4,.cls-6,.cls-8{stroke-width:0.25px;}.cls-4,.cls-5{stroke-dasharray:5 5;}.cls-5,.cls-6{stroke:#666;}.cls-6{stroke-dasharray:9 8;}.cls-7{stroke:silver;}.cls-8{stroke:#333;stroke-dasharray:8 8;}.cls-10{stroke:#ff7f00;}</style></defs><g id="A-Counter"><g id="LWPOLYLINE"><polyline class="cls-1" points="0.35 234.35 76.1 234.35 76.1 0.35 0.35 0.35"/></g><g id="LWPOLYLINE-2" data-name="LWPOLYLINE"><polyline class="cls-1" points="0.35 540.35 76.1 540.35 76.1 486.35 0.35 486.35"/></g><g id="LWPOLYLINE-3" data-name="LWPOLYLINE"><polyline class="cls-1" points="0.35 378.35 76.1 378.35 76.1 324.35 0.35 324.35"/></g><g id="LWPOLYLINE-4" data-name="LWPOLYLINE"><polyline class="cls-1" points="538.85 423.35 463.1 423.35 463.1 117.35 538.85 117.35"/></g><g id="LWPOLYLINE-5" data-name="LWPOLYLINE"><rect class="cls-1" x="198.35" y="0.35" width="115.5" height="432"/></g></g><g id="Layer_13" data-name="Layer 13"><g id="LWPOLYLINE-6" data-name="LWPOLYLINE"><polyline class="cls-2" points="16.86 132.35 16.86 171.35 67.85 171.35 67.85 90.35 16.86 90.35 16.86 129.35"/></g></g><g id="A-Appliances"><g id="LWPOLYLINE-7" data-name="LWPOLYLINE"><polyline class="cls-3" points="92.98 444.04 103.48 444.04 103.48 481.54 6.35 481.54 6.35 383.29 103.48 383.29 103.48 443.29 92.98 443.29"/></g><g id="LINE"><line class="cls-3" x1="92.98" y1="383.28" x2="92.98" y2="481.53"/></g><g id="LWPOLYLINE-8" data-name="LWPOLYLINE"><rect class="cls-3" x="103.48" y="438.23" width="6.75" height="4.12"/></g><g id="LWPOLYLINE-9" data-name="LWPOLYLINE"><rect class="cls-3" x="103.48" y="444.97" width="6.75" height="4.13"/></g><g id="LINE-2" data-name="LINE"><line class="cls-3" x1="76.85" y1="324.35" x2="76.85" y2="234.35"/></g><g id="LINE-3" data-name="LINE"><line class="cls-3" x1="76.85" y1="234.35" x2="0.35" y2="234.35"/></g><g id="LINE-4" data-name="LINE"><line class="cls-3" x1="76.85" y1="324.35" x2="0.35" y2="324.35"/></g><g id="LINE-5" data-name="LINE"><line class="cls-3" x1="0.35" y1="234.35" x2="0.35" y2="324.35"/></g><g id="LWPOLYLINE-10" data-name="LWPOLYLINE"><polyline class="cls-3" points="76.85 234.35 90.35 234.35 90.35 324.35 76.85 324.35"/></g><g id="LWPOLYLINE-11" data-name="LWPOLYLINE"><polyline class="cls-3" points="76.85 238.85 81.35 238.85 81.35 319.85 76.85 319.85"/></g><g id="LWPOLYLINE-12" data-name="LWPOLYLINE"><rect class="cls-3" x="0.35" y="9.35" width="70.12" height="72"/></g><g id="LWPOLYLINE-13" data-name="LWPOLYLINE"><polyline class="cls-3" points="70.48 81.35 77.6 81.35 77.6 9.35 70.48 9.35"/></g></g><g id="FAIR_HOUSING" data-name="FAIR HOUSING"><g id="LWPOLYLINE-14" data-name="LWPOLYLINE"><rect class="cls-4" x="106.48" y="356.28" width="90" height="144"/></g><g id="LWPOLYLINE-15" data-name="LWPOLYLINE"><rect class="cls-4" x="93.35" y="207.35" width="90" height="144"/></g><g id="LWPOLYLINE-16" data-name="LWPOLYLINE"><rect class="cls-4" x="79.1" y="58.85" width="90" height="144"/></g><g id="LWPOLYLINE-17" data-name="LWPOLYLINE"><rect class="cls-4" x="78.35" y="-26.65" width="90" height="144"/></g></g><g id="A-Cabinetry-Upper"><g id="LWPOLYLINE-18" data-name="LWPOLYLINE"><polyline class="cls-5" points="36.35 234.35 45.35 243.35 45.35 315.35 36.35 324.35"/></g></g><g id="A-Appliances_Detail" data-name="A-Appliances Detail"><g id="CIRCLE"><path class="cls-6" d="M10.86,306.35a10.5,10.5,0,1,1,10.49,10.5,10.49,10.49,0,0,1-10.49-10.5Z"/></g><g id="CIRCLE-2" data-name="CIRCLE"><path class="cls-6" d="M7.88,306.35a13.48,13.48,0,1,1,13.47,13.48A13.47,13.47,0,0,1,7.88,306.35Z"/></g><g id="CIRCLE-3" data-name="CIRCLE"><path class="cls-6" d="M10.86,252.35a10.5,10.5,0,1,1,10.49,10.5,10.49,10.49,0,0,1-10.49-10.5Z"/></g><g id="CIRCLE-4" data-name="CIRCLE"><path class="cls-6" d="M49.86,306.35a10.5,10.5,0,1,1,10.5,10.5,10.5,10.5,0,0,1-10.5-10.5Z"/></g><g id="CIRCLE-5" data-name="CIRCLE"><path class="cls-6" d="M49.86,252.35a10.5,10.5,0,1,1,10.5,10.5,10.5,10.5,0,0,1-10.5-10.5Z"/></g><g id="CIRCLE-6" data-name="CIRCLE"><path class="cls-6" d="M46.88,252.35a13.48,13.48,0,1,1,13.48,13.48,13.48,13.48,0,0,1-13.48-13.48Z"/></g><g id="LWPOLYLINE-19" data-name="LWPOLYLINE"><polyline class="cls-6" points="61.85 9.35 144.35 9.35 144.35 81.35 61.85 81.35"/></g><g id="LWPOLYLINE-20" data-name="LWPOLYLINE"><polyline class="cls-6" points="144.35 9.35 61.85 45.35 144.35 81.35"/></g></g><g id="P-PLUMBING_FIXTURES" data-name="P-PLUMBING FIXTURES"><g id="CIRCLE-7" data-name="CIRCLE"><path class="cls-7" d="M32.43,130.85a3.09,3.09,0,1,1,3.09,3.1,3.09,3.09,0,0,1-3.09-3.1Z"/></g><g id="LINE-6" data-name="LINE"><line class="cls-7" x1="32.81" y1="132.35" x2="10.35" y2="132.35"/></g><g id="LINE-7" data-name="LINE"><line class="cls-7" x1="10.35" y1="129.35" x2="32.81" y2="129.35"/></g><g id="LINE-8" data-name="LINE"><line class="cls-7" x1="19.03" y1="131.6" x2="7.86" y2="131.6"/></g><g id="LINE-9" data-name="LINE"><line class="cls-7" x1="19.03" y1="131.6" x2="19.03" y2="130.1"/></g><g id="LINE-10" data-name="LINE"><line class="cls-7" x1="19.03" y1="130.1" x2="7.86" y2="130.1"/></g><g id="ARC"><path class="cls-7" d="M10.67,130.1a2.91,2.91,0,1,0,0,1.5"/></g><g id="ARC-2" data-name="ARC"><path class="cls-7" d="M7.86,130.1a.75.75,0,0,0,0,1.5"/></g></g><g id="A-Cabinetry"><g id="LINE-11" data-name="LINE"><line class="cls-8" x1="0.35" y1="180.35" x2="72.35" y2="180.35"/></g><g id="LINE-12" data-name="LINE"><line class="cls-8" x1="0.35" y1="81.35" x2="72.35" y2="81.35"/></g><g id="LWPOLYLINE-21" data-name="LWPOLYLINE"><line class="cls-8" x1="72.35" y1="180.35" x2="72.35" y2="81.35"/></g><g id="LWPOLYLINE-22" data-name="LWPOLYLINE"><polyline class="cls-8" points="0.35 486.35 72.35 486.35 72.35 540.35 0.35 540.35"/></g><g id="LWPOLYLINE-23" data-name="LWPOLYLINE"><polyline class="cls-8" points="0.35 324.35 72.35 324.35 72.35 378.35 0.35 378.35"/></g><g id="LWPOLYLINE-24" data-name="LWPOLYLINE"><polyline class="cls-8" points="0.35 180.35 72.35 180.35 72.35 234.35 0.35 234.35"/></g><g id="LWPOLYLINE-25" data-name="LWPOLYLINE"><polyline class="cls-8" points="538.85 279.35 466.85 279.35 466.85 189.35 538.85 189.35"/></g><g id="LWPOLYLINE-26" data-name="LWPOLYLINE"><line class="cls-8" x1="538.85" y1="189.35" x2="466.85" y2="279.35"/></g><g id="LWPOLYLINE-27" data-name="LWPOLYLINE"><line class="cls-8" x1="538.85" y1="279.35" x2="466.85" y2="189.35"/></g><g id="LINE-13" data-name="LINE"><line class="cls-8" x1="466.85" y1="538.1" x2="466.85" y2="425.6"/></g><g id="LWPOLYLINE-28" data-name="LWPOLYLINE"><polygon class="cls-8" points="466.85 423.35 466.85 425.6 536.6 425.6 536.6 538.1 466.85 538.1 466.85 540.35 538.85 540.35 538.85 423.35 466.85 423.35"/></g><g id="LWPOLYLINE-29" data-name="LWPOLYLINE"><rect class="cls-8" x="419.64" y="445.16" width="56.25" height="2.25" transform="translate(-184.43 447.33) rotate(-45)"/></g><g id="LWPOLYLINE-30" data-name="LWPOLYLINE"><rect class="cls-8" x="446.64" y="489.3" width="2.25" height="56.25" transform="translate(-234.73 468.17) rotate(-45)"/></g><g id="ARC-3" data-name="ARC"><path class="cls-8" d="M426.87,465.43a56,56,0,0,0,39.64,16.42"/></g><g id="ARC-4" data-name="ARC"><path class="cls-8" d="M466.51,481.85a56.06,56.06,0,0,0-39.64,16.42"/></g><g id="LWPOLYLINE-31" data-name="LWPOLYLINE"><polyline class="cls-8" points="538.85 423.35 466.85 423.35 466.85 351.35 538.85 351.35"/></g><g id="LWPOLYLINE-32" data-name="LWPOLYLINE"><polyline class="cls-8" points="538.85 189.35 466.85 189.35 466.85 117.35 538.85 117.35"/></g><g id="LINE-14" data-name="LINE"><line class="cls-8" x1="466.85" y1="115.1" x2="466.85" y2="11.6"/></g><g id="LWPOLYLINE-33" data-name="LWPOLYLINE"><polygon class="cls-8" points="466.85 9.35 466.85 11.6 536.6 11.6 536.6 115.1 466.85 115.1 466.85 117.35 538.85 117.35 538.85 9.35 466.85 9.35"/></g><g id="LWPOLYLINE-34" data-name="LWPOLYLINE"><rect class="cls-8" x="423.48" y="29.57" width="51.75" height="2.25" transform="translate(109.91 326.73) rotate(-45)"/></g><g id="LWPOLYLINE-35" data-name="LWPOLYLINE"><rect class="cls-8" x="448.23" y="70.14" width="2.25" height="51.75" transform="translate(63.72 345.86) rotate(-45)"/></g><g id="ARC-5" data-name="ARC"><path class="cls-8" d="M430.26,48.2a51.78,51.78,0,0,0,36.59,15.15"/></g><g id="ARC-6" data-name="ARC"><path class="cls-8" d="M466.85,63.35a51.78,51.78,0,0,0-36.59,15.16"/></g><g id="LWPOLYLINE-36" data-name="LWPOLYLINE"><polyline class="cls-8" points="538.85 351.35 466.85 351.35 466.85 279.35 538.85 279.35"/></g><g id="LWPOLYLINE-37" data-name="LWPOLYLINE"><rect class="cls-8" x="202.1" y="394.85" width="108" height="36"/></g><g id="LWPOLYLINE-38" data-name="LWPOLYLINE"><rect class="cls-8" x="202.1" y="322.85" width="72" height="72"/></g><g id="LWPOLYLINE-39" data-name="LWPOLYLINE"><rect class="cls-8" x="202.1" y="250.85" width="72" height="72"/></g><g id="LWPOLYLINE-40" data-name="LWPOLYLINE"><rect class="cls-8" x="202.1" y="178.85" width="72" height="72"/></g></g><g id="A-Walls"><g id="LWPOLYLINE-41" data-name="LWPOLYLINE"><line class="cls-9" x1="0.35" y1="540.35" x2="0.35" y2="0.35"/></g><g id="LWPOLYLINE-42" data-name="LWPOLYLINE"><polyline class="cls-9" points="313.85 212.88 349.85 212.88 349.85 140.88 313.85 140.88"/></g><g id="LWPOLYLINE-43" data-name="LWPOLYLINE"><polyline class="cls-9" points="313.85 320.88 349.85 320.88 349.85 248.88 313.85 248.88"/></g></g><g id="A-Align"><g id="LWPOLYLINE-44" data-name="LWPOLYLINE"><polygon class="cls-10" points="198.35 540.35 421.85 540.35 538.85 540.35 538.85 0.35 421.85 0.35 198.35 0.35 0.35 0.35 0.35 540.35 198.35 540.35"/></g></g></svg>