<svg xmlns="http://www.w3.org/2000/svg" viewBox="0 0 117.71 387.71"><defs><style>.cls-1{fill:#b3b3b3;stroke-width:2px;}.cls-1,.cls-2{stroke:#000;stroke-linecap:round;stroke-linejoin:round;}.cls-2{fill:none;stroke-width:0.25px;stroke-dasharray:7 7;}</style></defs><g id="A-Counter"><g id="LWPOLYLINE"><polyline class="cls-1" points="117.35 279.35 41.6 279.35 41.6 9.35 117.35 9.35"/></g></g><g id="A-Cabinetry"><g id="LWPOLYLINE-2" data-name="LWPOLYLINE"><polyline class="cls-2" points="117.35 279.35 45.35 279.35 45.35 171.35 117.35 171.35"/></g><g id="LWPOLYLINE-3" data-name="LWPOLYLINE"><line class="cls-2" x1="117.35" y1="171.35" x2="45.35" y2="279.35"/></g><g id="LWPOLYLINE-4" data-name="LWPOLYLINE"><line class="cls-2" x1="117.35" y1="279.35" x2="45.35" y2="171.35"/></g><g id="LWPOLYLINE-5" data-name="LWPOLYLINE"><polyline class="cls-2" points="117.35 171.35 45.35 171.35 45.35 99.35 117.35 99.35"/></g><g id="LWPOLYLINE-6" data-name="LWPOLYLINE"><polyline class="cls-2" points="117.35 99.35 45.35 99.35 45.35 18.35 117.35 18.35"/></g><g id="LINE"><line class="cls-2" x1="45.35" y1="385.1" x2="45.35" y2="281.6"/></g><g id="LWPOLYLINE-7" data-name="LWPOLYLINE"><polygon class="cls-2" points="45.35 279.35 45.35 281.6 115.1 281.6 115.1 385.1 45.35 385.1 45.35 387.35 117.35 387.35 117.35 279.35 45.35 279.35"/></g><g id="LWPOLYLINE-8" data-name="LWPOLYLINE"><rect class="cls-2" x="1.98" y="299.57" width="51.75" height="2.25" transform="translate(-204.47 107.77) rotate(-45)"/></g><g id="LWPOLYLINE-9" data-name="LWPOLYLINE"><rect class="cls-2" x="26.73" y="340.14" width="2.25" height="51.75" transform="translate(-250.65 126.9) rotate(-45)"/></g><g id="ARC"><path class="cls-2" d="M8.76,318.2a51.78,51.78,0,0,0,36.59,15.15"/></g><g id="ARC-2" data-name="ARC"><path class="cls-2" d="M45.35,333.35A51.78,51.78,0,0,0,8.76,348.51"/></g></g></svg>