<svg xmlns="http://www.w3.org/2000/svg" viewBox="0 0 198.71 432.71"><defs><style>.cls-1{fill:#b3b3b3;}.cls-1,.cls-2,.cls-3,.cls-5,.cls-6,.cls-7,.cls-8{stroke:#000;}.cls-1,.cls-2,.cls-3,.cls-4,.cls-5,.cls-6,.cls-7,.cls-8{stroke-linecap:round;stroke-linejoin:round;}.cls-1,.cls-2,.cls-3{stroke-width:2px;}.cls-2{fill:#fff;}.cls-3,.cls-4,.cls-5,.cls-6,.cls-7,.cls-8{fill:none;}.cls-4{stroke:silver;stroke-width:0.71px;}.cls-5,.cls-6{stroke-width:0.25px;}.cls-5{stroke-dasharray:7 7;}.cls-6{stroke-dasharray:13 6;}.cls-7,.cls-8{stroke-width:0.5px;}.cls-8{stroke-dasharray:9 3;}</style></defs><g id="A-Counter"><g id="LWPOLYLINE"><polyline class="cls-1" points="0.35 108.35 72.35 108.35 72.35 0.35 0.35 0.35"/></g><g id="LWPOLYLINE-2" data-name="LWPOLYLINE"><polyline class="cls-2" points="16.86 60.35 16.86 99.35 67.85 99.35 67.85 18.35 16.86 18.35 16.86 57.35"/></g><g id="LWPOLYLINE-3" data-name="LWPOLYLINE"><polyline class="cls-1" points="0.35 270.35 76.1 270.35 76.1 198.35 0.35 198.35"/></g><g id="LWPOLYLINE-4" data-name="LWPOLYLINE"><polyline class="cls-1" points="0.35 432.35 76.1 432.35 76.1 387.35 0.35 387.35"/></g></g><g id="A-Walls"><g id="LWPOLYLINE-5" data-name="LWPOLYLINE"><line class="cls-3" x1="0.35" y1="432.35" x2="0.35" y2="0.35"/></g></g><g id="P-PLUMBING_FIXTURES" data-name="P-PLUMBING FIXTURES"><g id="CIRCLE"><path class="cls-4" d="M32.43,58.85A3.09,3.09,0,1,1,35.52,62a3.09,3.09,0,0,1-3.09-3.1Z"/></g><g id="LINE"><line class="cls-4" x1="32.81" y1="60.35" x2="10.35" y2="60.35"/></g><g id="LINE-2" data-name="LINE"><line class="cls-4" x1="10.35" y1="57.35" x2="32.81" y2="57.35"/></g><g id="LINE-3" data-name="LINE"><line class="cls-4" x1="19.03" y1="59.6" x2="7.86" y2="59.6"/></g><g id="LINE-4" data-name="LINE"><line class="cls-4" x1="19.03" y1="59.6" x2="19.03" y2="58.1"/></g><g id="LINE-5" data-name="LINE"><line class="cls-4" x1="19.03" y1="58.1" x2="7.86" y2="58.1"/></g><g id="ARC"><path class="cls-4" d="M10.67,58.1a2.91,2.91,0,1,0,0,1.5"/></g><g id="ARC-2" data-name="ARC"><path class="cls-4" d="M7.86,58.1a.75.75,0,0,0,0,1.5"/></g></g><g id="A-Cabinetry"><g id="LINE-6" data-name="LINE"><line class="cls-5" x1="0.35" y1="108.35" x2="72.35" y2="108.35"/></g><g id="LINE-7" data-name="LINE"><line class="cls-5" x1="0.35" y1="9.35" x2="72.35" y2="9.35"/></g><g id="LWPOLYLINE-6" data-name="LWPOLYLINE"><line class="cls-5" x1="72.35" y1="108.35" x2="72.35" y2="9.35"/></g><g id="LWPOLYLINE-7" data-name="LWPOLYLINE"><polyline class="cls-5" points="0.35 387.35 72.35 387.35 72.35 432.35 0.35 432.35"/></g></g><g id="FAIR_HOUSING" data-name="FAIR HOUSING"><g id="LWPOLYLINE-8" data-name="LWPOLYLINE"><rect class="cls-6" x="106.48" y="251.6" width="90" height="144"/></g><g id="LWPOLYLINE-9" data-name="LWPOLYLINE"><rect class="cls-6" x="93.35" y="81.35" width="90" height="144"/></g><g id="LWPOLYLINE-10" data-name="LWPOLYLINE"><rect class="cls-6" x="93.35" y="81.35" width="90" height="144"/></g><g id="LWPOLYLINE-11" data-name="LWPOLYLINE"><rect class="cls-6" x="79.1" y="-13.15" width="90" height="144"/></g><g id="LWPOLYLINE-12" data-name="LWPOLYLINE"><rect class="cls-6" x="78.35" y="162.35" width="90" height="144"/></g></g><g id="A-Appliances"><g id="LWPOLYLINE-13" data-name="LWPOLYLINE"><polyline class="cls-7" points="92.98 339.35 103.48 339.35 103.48 376.85 6.35 376.85 6.35 278.6 103.48 278.6 103.48 338.6 92.98 338.6"/></g><g id="LINE-8" data-name="LINE"><line class="cls-7" x1="92.98" y1="278.6" x2="92.98" y2="376.85"/></g><g id="LWPOLYLINE-14" data-name="LWPOLYLINE"><rect class="cls-7" x="103.48" y="333.55" width="6.75" height="4.12"/></g><g id="LWPOLYLINE-15" data-name="LWPOLYLINE"><rect class="cls-7" x="103.48" y="340.29" width="6.75" height="4.13"/></g><g id="LINE-9" data-name="LINE"><line class="cls-7" x1="76.85" y1="198.35" x2="76.85" y2="108.35"/></g><g id="LINE-10" data-name="LINE"><line class="cls-7" x1="76.85" y1="108.35" x2="0.35" y2="108.35"/></g><g id="LINE-11" data-name="LINE"><line class="cls-7" x1="76.85" y1="198.35" x2="0.35" y2="198.35"/></g><g id="LINE-12" data-name="LINE"><line class="cls-7" x1="0.35" y1="108.35" x2="0.35" y2="198.35"/></g><g id="LWPOLYLINE-16" data-name="LWPOLYLINE"><polyline class="cls-7" points="76.85 108.35 90.35 108.35 90.35 198.35 76.85 198.35"/></g><g id="LWPOLYLINE-17" data-name="LWPOLYLINE"><polyline class="cls-7" points="76.85 112.85 81.35 112.85 81.35 193.85 76.85 193.85"/></g><g id="LINE-13" data-name="LINE"><line class="cls-7" x1="76.85" y1="198.35" x2="76.85" y2="108.35"/></g><g id="LINE-14" data-name="LINE"><line class="cls-7" x1="76.85" y1="108.35" x2="0.35" y2="108.35"/></g><g id="LINE-15" data-name="LINE"><line class="cls-7" x1="76.85" y1="198.35" x2="0.35" y2="198.35"/></g><g id="LINE-16" data-name="LINE"><line class="cls-7" x1="0.35" y1="108.35" x2="0.35" y2="198.35"/></g><g id="LWPOLYLINE-18" data-name="LWPOLYLINE"><polyline class="cls-7" points="76.85 108.35 90.35 108.35 90.35 198.35 76.85 198.35"/></g><g id="LWPOLYLINE-19" data-name="LWPOLYLINE"><polyline class="cls-7" points="76.85 112.85 81.35 112.85 81.35 193.85 76.85 193.85"/></g><g id="LWPOLYLINE-20" data-name="LWPOLYLINE"><rect class="cls-7" x="0.35" y="198.35" width="70.12" height="72"/></g><g id="LWPOLYLINE-21" data-name="LWPOLYLINE"><polyline class="cls-7" points="70.48 270.35 77.6 270.35 77.6 198.35 70.48 198.35"/></g></g><g id="A-Appliances_Detail" data-name="A-Appliances Detail"><g id="CIRCLE-2" data-name="CIRCLE"><path class="cls-8" d="M10.86,180.35a10.5,10.5,0,1,1,10.49,10.5,10.49,10.49,0,0,1-10.49-10.5Z"/></g><g id="CIRCLE-3" data-name="CIRCLE"><path class="cls-8" d="M7.88,180.35a13.48,13.48,0,1,1,13.47,13.48A13.47,13.47,0,0,1,7.88,180.35Z"/></g><g id="CIRCLE-4" data-name="CIRCLE"><path class="cls-8" d="M10.86,126.35a10.5,10.5,0,1,1,10.49,10.5,10.49,10.49,0,0,1-10.49-10.5Z"/></g><g id="CIRCLE-5" data-name="CIRCLE"><path class="cls-8" d="M49.86,180.35a10.5,10.5,0,1,1,10.5,10.5,10.5,10.5,0,0,1-10.5-10.5Z"/></g><g id="CIRCLE-6" data-name="CIRCLE"><path class="cls-8" d="M49.86,126.35a10.5,10.5,0,1,1,10.5,10.5,10.5,10.5,0,0,1-10.5-10.5Z"/></g><g id="CIRCLE-7" data-name="CIRCLE"><path class="cls-8" d="M46.88,126.35a13.48,13.48,0,1,1,13.48,13.48,13.48,13.48,0,0,1-13.48-13.48Z"/></g><g id="CIRCLE-8" data-name="CIRCLE"><path class="cls-8" d="M10.86,180.35a10.5,10.5,0,1,1,10.49,10.5,10.49,10.49,0,0,1-10.49-10.5Z"/></g><g id="CIRCLE-9" data-name="CIRCLE"><path class="cls-8" d="M7.88,180.35a13.48,13.48,0,1,1,13.47,13.48A13.47,13.47,0,0,1,7.88,180.35Z"/></g><g id="CIRCLE-10" data-name="CIRCLE"><path class="cls-8" d="M10.86,126.35a10.5,10.5,0,1,1,10.49,10.5,10.49,10.49,0,0,1-10.49-10.5Z"/></g><g id="CIRCLE-11" data-name="CIRCLE"><path class="cls-8" d="M49.86,180.35a10.5,10.5,0,1,1,10.5,10.5,10.5,10.5,0,0,1-10.5-10.5Z"/></g><g id="CIRCLE-12" data-name="CIRCLE"><path class="cls-8" d="M49.86,126.35a10.5,10.5,0,1,1,10.5,10.5,10.5,10.5,0,0,1-10.5-10.5Z"/></g><g id="CIRCLE-13" data-name="CIRCLE"><path class="cls-8" d="M46.88,126.35a13.48,13.48,0,1,1,13.48,13.48,13.48,13.48,0,0,1-13.48-13.48Z"/></g><g id="LWPOLYLINE-22" data-name="LWPOLYLINE"><polyline class="cls-8" points="61.85 198.35 144.35 198.35 144.35 270.35 61.85 270.35"/></g><g id="LWPOLYLINE-23" data-name="LWPOLYLINE"><polyline class="cls-8" points="144.35 198.35 61.85 234.35 144.35 270.35"/></g></g></svg>