<svg xmlns="http://www.w3.org/2000/svg" viewBox="0 0 315.71 576.71"><defs><style>.cls-1{fill:#e6e6e6;}.cls-1,.cls-2,.cls-3,.cls-4,.cls-9{stroke:#000;}.cls-1,.cls-10,.cls-2,.cls-3,.cls-4,.cls-5,.cls-6,.cls-7,.cls-8,.cls-9{stroke-linecap:round;stroke-linejoin:round;}.cls-1,.cls-10,.cls-2,.cls-7{stroke-width:0.71px;}.cls-2{fill:#fff;}.cls-10,.cls-3,.cls-4,.cls-5,.cls-6,.cls-7,.cls-8,.cls-9{fill:none;}.cls-3,.cls-5{stroke-width:0.5px;}.cls-4,.cls-6,.cls-8{stroke-width:0.25px;}.cls-4,.cls-5{stroke-dasharray:5 5;}.cls-5,.cls-6{stroke:#666;}.cls-6{stroke-dasharray:9 8;}.cls-7{stroke:silver;}.cls-8{stroke:#333;stroke-dasharray:8 8;}.cls-10{stroke:#ff7f00;}</style></defs><g id="A-Counter"><g id="LWPOLYLINE"><polyline class="cls-1" points="0.35 252.35 76.1 252.35 76.1 0.35 0.35 0.35"/></g><g id="LWPOLYLINE-2" data-name="LWPOLYLINE"><polyline class="cls-1" points="0.35 576.35 76.1 576.35 76.1 522.35 0.35 522.35"/></g><g id="LWPOLYLINE-3" data-name="LWPOLYLINE"><polyline class="cls-1" points="0.35 414.35 76.1 414.35 76.1 342.35 0.35 342.35"/></g><g id="LWPOLYLINE-4" data-name="LWPOLYLINE"><polyline class="cls-1" points="315.35 342.35 239.6 342.35 239.6 9.35 315.35 9.35"/></g></g><g id="Layer_13" data-name="Layer 13"><g id="LWPOLYLINE-5" data-name="LWPOLYLINE"><polyline class="cls-2" points="16.86 132.35 16.86 171.35 67.85 171.35 67.85 90.35 16.86 90.35 16.86 129.35"/></g></g><g id="A-Appliances"><g id="LWPOLYLINE-6" data-name="LWPOLYLINE"><polyline class="cls-3" points="92.98 480.04 103.48 480.04 103.48 517.53 6.35 517.53 6.35 419.29 103.48 419.29 103.48 479.29 92.98 479.29"/></g><g id="LINE"><line class="cls-3" x1="92.98" y1="419.28" x2="92.98" y2="517.53"/></g><g id="LWPOLYLINE-7" data-name="LWPOLYLINE"><rect class="cls-3" x="103.48" y="474.23" width="6.75" height="4.12"/></g><g id="LWPOLYLINE-8" data-name="LWPOLYLINE"><rect class="cls-3" x="103.48" y="480.97" width="6.75" height="4.13"/></g><g id="LINE-2" data-name="LINE"><line class="cls-3" x1="76.85" y1="342.35" x2="76.85" y2="252.35"/></g><g id="LINE-3" data-name="LINE"><line class="cls-3" x1="76.85" y1="252.35" x2="0.35" y2="252.35"/></g><g id="LINE-4" data-name="LINE"><line class="cls-3" x1="76.85" y1="342.35" x2="0.35" y2="342.35"/></g><g id="LINE-5" data-name="LINE"><line class="cls-3" x1="0.35" y1="252.35" x2="0.35" y2="342.35"/></g><g id="LWPOLYLINE-9" data-name="LWPOLYLINE"><polyline class="cls-3" points="76.85 252.35 90.35 252.35 90.35 342.35 76.85 342.35"/></g><g id="LWPOLYLINE-10" data-name="LWPOLYLINE"><polyline class="cls-3" points="76.85 256.85 81.35 256.85 81.35 337.85 76.85 337.85"/></g><g id="LWPOLYLINE-11" data-name="LWPOLYLINE"><rect class="cls-3" x="0.35" y="9.35" width="70.12" height="72"/></g><g id="LWPOLYLINE-12" data-name="LWPOLYLINE"><polyline class="cls-3" points="70.48 81.35 77.6 81.35 77.6 9.35 70.48 9.35"/></g></g><g id="FAIR_HOUSING" data-name="FAIR HOUSING"><g id="LWPOLYLINE-13" data-name="LWPOLYLINE"><rect class="cls-4" x="106.48" y="392.28" width="90" height="144"/></g><g id="LWPOLYLINE-14" data-name="LWPOLYLINE"><rect class="cls-4" x="93.35" y="225.35" width="90" height="144"/></g><g id="LWPOLYLINE-15" data-name="LWPOLYLINE"><rect class="cls-4" x="79.1" y="58.85" width="90" height="144"/></g><g id="LWPOLYLINE-16" data-name="LWPOLYLINE"><rect class="cls-4" x="78.35" y="-26.65" width="90" height="144"/></g></g><g id="A-Cabinetry-Upper"><g id="LWPOLYLINE-17" data-name="LWPOLYLINE"><polyline class="cls-5" points="36.35 252.35 45.35 261.35 45.35 333.35 36.35 342.35"/></g></g><g id="A-Appliances_Detail" data-name="A-Appliances Detail"><g id="CIRCLE"><path class="cls-6" d="M10.86,324.35a10.5,10.5,0,1,1,10.49,10.5,10.49,10.49,0,0,1-10.49-10.5Z"/></g><g id="CIRCLE-2" data-name="CIRCLE"><path class="cls-6" d="M7.88,324.35a13.48,13.48,0,1,1,13.47,13.48A13.47,13.47,0,0,1,7.88,324.35Z"/></g><g id="CIRCLE-3" data-name="CIRCLE"><path class="cls-6" d="M10.86,270.35a10.5,10.5,0,1,1,10.49,10.5,10.49,10.49,0,0,1-10.49-10.5Z"/></g><g id="CIRCLE-4" data-name="CIRCLE"><path class="cls-6" d="M49.86,324.35a10.5,10.5,0,1,1,10.5,10.5,10.5,10.5,0,0,1-10.5-10.5Z"/></g><g id="CIRCLE-5" data-name="CIRCLE"><path class="cls-6" d="M49.86,270.35a10.5,10.5,0,1,1,10.5,10.5,10.5,10.5,0,0,1-10.5-10.5Z"/></g><g id="CIRCLE-6" data-name="CIRCLE"><path class="cls-6" d="M46.88,270.35a13.48,13.48,0,1,1,13.48,13.48,13.48,13.48,0,0,1-13.48-13.48Z"/></g><g id="LWPOLYLINE-18" data-name="LWPOLYLINE"><polyline class="cls-6" points="61.85 9.35 144.35 9.35 144.35 81.35 61.85 81.35"/></g><g id="LWPOLYLINE-19" data-name="LWPOLYLINE"><polyline class="cls-6" points="144.35 9.35 61.85 45.35 144.35 81.35"/></g></g><g id="P-PLUMBING_FIXTURES" data-name="P-PLUMBING FIXTURES"><g id="CIRCLE-7" data-name="CIRCLE"><path class="cls-7" d="M32.43,130.85a3.09,3.09,0,1,1,3.09,3.1,3.09,3.09,0,0,1-3.09-3.1Z"/></g><g id="LINE-6" data-name="LINE"><line class="cls-7" x1="32.81" y1="132.35" x2="10.35" y2="132.35"/></g><g id="LINE-7" data-name="LINE"><line class="cls-7" x1="10.35" y1="129.35" x2="32.81" y2="129.35"/></g><g id="LINE-8" data-name="LINE"><line class="cls-7" x1="19.03" y1="131.6" x2="7.86" y2="131.6"/></g><g id="LINE-9" data-name="LINE"><line class="cls-7" x1="19.03" y1="131.6" x2="19.03" y2="130.1"/></g><g id="LINE-10" data-name="LINE"><line class="cls-7" x1="19.03" y1="130.1" x2="7.86" y2="130.1"/></g><g id="ARC"><path class="cls-7" d="M10.67,130.1a2.91,2.91,0,1,0,0,1.5"/></g><g id="ARC-2" data-name="ARC"><path class="cls-7" d="M7.86,130.1a.75.75,0,0,0,0,1.5"/></g></g><g id="A-Cabinetry"><g id="LINE-11" data-name="LINE"><line class="cls-8" x1="0.35" y1="180.35" x2="72.35" y2="180.35"/></g><g id="LINE-12" data-name="LINE"><line class="cls-8" x1="0.35" y1="81.35" x2="72.35" y2="81.35"/></g><g id="LWPOLYLINE-20" data-name="LWPOLYLINE"><line class="cls-8" x1="72.35" y1="180.35" x2="72.35" y2="81.35"/></g><g id="LWPOLYLINE-21" data-name="LWPOLYLINE"><polyline class="cls-8" points="0.35 522.35 72.35 522.35 72.35 576.35 0.35 576.35"/></g><g id="LWPOLYLINE-22" data-name="LWPOLYLINE"><polyline class="cls-8" points="0.35 342.35 72.35 342.35 72.35 414.35 0.35 414.35"/></g><g id="LWPOLYLINE-23" data-name="LWPOLYLINE"><polyline class="cls-8" points="0.35 180.35 72.35 180.35 72.35 252.35 0.35 252.35"/></g><g id="LWPOLYLINE-24" data-name="LWPOLYLINE"><polyline class="cls-8" points="315.35 198.35 243.35 198.35 243.35 108.35 315.35 108.35"/></g><g id="LWPOLYLINE-25" data-name="LWPOLYLINE"><line class="cls-8" x1="315.35" y1="108.35" x2="243.35" y2="198.35"/></g><g id="LWPOLYLINE-26" data-name="LWPOLYLINE"><line class="cls-8" x1="315.35" y1="198.35" x2="243.35" y2="108.35"/></g><g id="LINE-13" data-name="LINE"><line class="cls-8" x1="243.35" y1="574.1" x2="243.35" y2="461.6"/></g><g id="LWPOLYLINE-27" data-name="LWPOLYLINE"><polygon class="cls-8" points="243.35 459.35 243.35 461.6 313.1 461.6 313.1 574.1 243.35 574.1 243.35 576.35 315.35 576.35 315.35 459.35 243.35 459.35"/></g><g id="LWPOLYLINE-28" data-name="LWPOLYLINE"><rect class="cls-8" x="196.14" y="481.16" width="56.25" height="2.25" transform="translate(-275.34 299.84) rotate(-45)"/></g><g id="LWPOLYLINE-29" data-name="LWPOLYLINE"><rect class="cls-8" x="223.14" y="525.3" width="2.25" height="56.25" transform="translate(-325.64 320.67) rotate(-45)"/></g><g id="ARC-3" data-name="ARC"><path class="cls-8" d="M203.37,501.43A56,56,0,0,0,243,517.85"/></g><g id="ARC-4" data-name="ARC"><path class="cls-8" d="M243,517.85a56.06,56.06,0,0,0-39.64,16.42"/></g><g id="LWPOLYLINE-30" data-name="LWPOLYLINE"><polyline class="cls-8" points="315.35 342.35 243.35 342.35 243.35 270.35 315.35 270.35"/></g><g id="LWPOLYLINE-31" data-name="LWPOLYLINE"><polyline class="cls-8" points="315.35 108.35 243.35 108.35 243.35 63.35 315.35 63.35"/></g><g id="LWPOLYLINE-32" data-name="LWPOLYLINE"><polyline class="cls-8" points="315.35 270.35 243.35 270.35 243.35 198.35 315.35 198.35"/></g><g id="LINE-14" data-name="LINE"><line class="cls-8" x1="243.35" y1="457.1" x2="243.35" y2="344.6"/></g><g id="LWPOLYLINE-33" data-name="LWPOLYLINE"><polygon class="cls-8" points="243.35 342.35 243.35 344.6 313.1 344.6 313.1 457.1 243.35 457.1 243.35 459.35 315.35 459.35 315.35 342.35 243.35 342.35"/></g><g id="LWPOLYLINE-34" data-name="LWPOLYLINE"><rect class="cls-8" x="196.14" y="364.16" width="56.25" height="2.25" transform="translate(-192.61 265.57) rotate(-45)"/></g><g id="LWPOLYLINE-35" data-name="LWPOLYLINE"><rect class="cls-8" x="223.14" y="408.3" width="2.25" height="56.25" transform="translate(-242.91 286.4) rotate(-45)"/></g><g id="ARC-5" data-name="ARC"><path class="cls-8" d="M203.37,384.43A56,56,0,0,0,243,400.85"/></g><g id="ARC-6" data-name="ARC"><path class="cls-8" d="M243,400.85a56.06,56.06,0,0,0-39.64,16.42"/></g><g id="LWPOLYLINE-36" data-name="LWPOLYLINE"><polyline class="cls-8" points="315.35 63.35 243.35 63.35 243.35 18.35 315.35 18.35"/></g></g><g id="A-Walls"><g id="LWPOLYLINE-37" data-name="LWPOLYLINE"><line class="cls-9" x1="0.35" y1="576.35" x2="0.35" y2="0.35"/></g></g><g id="A-Align"><g id="LWPOLYLINE-38" data-name="LWPOLYLINE"><polygon class="cls-10" points="198.35 576.35 315.35 576.35 315.35 0.35 198.35 0.35 0.35 0.35 0.35 576.35 198.35 576.35"/></g></g></svg>