<svg xmlns="http://www.w3.org/2000/svg" viewBox="0 0 315.71 612.71"><defs><style>.cls-1{fill:#e6e6e6;}.cls-1,.cls-2,.cls-3,.cls-4,.cls-9{stroke:#000;}.cls-1,.cls-10,.cls-2,.cls-3,.cls-4,.cls-5,.cls-6,.cls-7,.cls-8,.cls-9{stroke-linecap:round;stroke-linejoin:round;}.cls-1,.cls-10,.cls-2,.cls-7{stroke-width:0.71px;}.cls-2{fill:#fff;}.cls-10,.cls-3,.cls-4,.cls-5,.cls-6,.cls-7,.cls-8,.cls-9{fill:none;}.cls-3,.cls-5{stroke-width:0.5px;}.cls-4,.cls-6,.cls-8{stroke-width:0.25px;}.cls-4,.cls-5{stroke-dasharray:5 5;}.cls-5,.cls-6{stroke:#666;}.cls-6{stroke-dasharray:9 8;}.cls-7{stroke:silver;}.cls-8{stroke:#333;stroke-dasharray:8 8;}.cls-10{stroke:#ff7f00;}</style></defs><g id="A-Counter"><g id="LWPOLYLINE"><polyline class="cls-1" points="0.35 306.35 76.1 306.35 76.1 0.35 0.35 0.35"/></g><g id="LWPOLYLINE-2" data-name="LWPOLYLINE"><polyline class="cls-1" points="0.35 612.35 76.1 612.35 76.1 558.35 0.35 558.35"/></g><g id="LWPOLYLINE-3" data-name="LWPOLYLINE"><polyline class="cls-1" points="0.35 450.35 76.1 450.35 76.1 396.35 0.35 396.35"/></g><g id="LWPOLYLINE-4" data-name="LWPOLYLINE"><polyline class="cls-1" points="315.35 378.35 239.6 378.35 239.6 9.35 315.35 9.35"/></g></g><g id="Layer_13" data-name="Layer 13"><g id="LWPOLYLINE-5" data-name="LWPOLYLINE"><polyline class="cls-2" points="16.86 204.35 16.86 243.35 67.85 243.35 67.85 162.35 16.86 162.35 16.86 201.35"/></g></g><g id="A-Appliances"><g id="LWPOLYLINE-6" data-name="LWPOLYLINE"><polyline class="cls-3" points="92.98 516.03 103.48 516.03 103.48 553.53 6.35 553.53 6.35 455.29 103.48 455.29 103.48 515.28 92.98 515.28"/></g><g id="LINE"><line class="cls-3" x1="92.98" y1="455.28" x2="92.98" y2="553.53"/></g><g id="LWPOLYLINE-7" data-name="LWPOLYLINE"><rect class="cls-3" x="103.48" y="510.23" width="6.75" height="4.12"/></g><g id="LWPOLYLINE-8" data-name="LWPOLYLINE"><rect class="cls-3" x="103.48" y="516.97" width="6.75" height="4.13"/></g><g id="LINE-2" data-name="LINE"><line class="cls-3" x1="76.85" y1="396.35" x2="76.85" y2="306.35"/></g><g id="LINE-3" data-name="LINE"><line class="cls-3" x1="76.85" y1="306.35" x2="0.35" y2="306.35"/></g><g id="LINE-4" data-name="LINE"><line class="cls-3" x1="76.85" y1="396.35" x2="0.35" y2="396.35"/></g><g id="LINE-5" data-name="LINE"><line class="cls-3" x1="0.35" y1="306.35" x2="0.35" y2="396.35"/></g><g id="LWPOLYLINE-9" data-name="LWPOLYLINE"><polyline class="cls-3" points="76.85 306.35 90.35 306.35 90.35 396.35 76.85 396.35"/></g><g id="LWPOLYLINE-10" data-name="LWPOLYLINE"><polyline class="cls-3" points="76.85 310.85 81.35 310.85 81.35 391.85 76.85 391.85"/></g><g id="LWPOLYLINE-11" data-name="LWPOLYLINE"><rect class="cls-3" x="0.35" y="81.35" width="70.12" height="72"/></g><g id="LWPOLYLINE-12" data-name="LWPOLYLINE"><polyline class="cls-3" points="70.48 153.35 77.6 153.35 77.6 81.35 70.48 81.35"/></g></g><g id="FAIR_HOUSING" data-name="FAIR HOUSING"><g id="LWPOLYLINE-13" data-name="LWPOLYLINE"><rect class="cls-4" x="106.48" y="428.28" width="90" height="144"/></g><g id="LWPOLYLINE-14" data-name="LWPOLYLINE"><rect class="cls-4" x="93.35" y="279.35" width="90" height="144"/></g><g id="LWPOLYLINE-15" data-name="LWPOLYLINE"><rect class="cls-4" x="79.1" y="130.85" width="90" height="144"/></g><g id="LWPOLYLINE-16" data-name="LWPOLYLINE"><rect class="cls-4" x="78.35" y="45.35" width="90" height="144"/></g></g><g id="A-Cabinetry-Upper"><g id="LWPOLYLINE-17" data-name="LWPOLYLINE"><polyline class="cls-5" points="36.35 306.35 45.35 315.35 45.35 387.35 36.35 396.35"/></g></g><g id="A-Appliances_Detail" data-name="A-Appliances Detail"><g id="CIRCLE"><path class="cls-6" d="M10.86,378.35a10.5,10.5,0,1,1,10.49,10.5,10.49,10.49,0,0,1-10.49-10.5Z"/></g><g id="CIRCLE-2" data-name="CIRCLE"><path class="cls-6" d="M7.88,378.35a13.48,13.48,0,1,1,13.47,13.48A13.47,13.47,0,0,1,7.88,378.35Z"/></g><g id="CIRCLE-3" data-name="CIRCLE"><path class="cls-6" d="M10.86,324.35a10.5,10.5,0,1,1,10.49,10.5,10.49,10.49,0,0,1-10.49-10.5Z"/></g><g id="CIRCLE-4" data-name="CIRCLE"><path class="cls-6" d="M49.86,378.35a10.5,10.5,0,1,1,10.5,10.5,10.5,10.5,0,0,1-10.5-10.5Z"/></g><g id="CIRCLE-5" data-name="CIRCLE"><path class="cls-6" d="M49.86,324.35a10.5,10.5,0,1,1,10.5,10.5,10.5,10.5,0,0,1-10.5-10.5Z"/></g><g id="CIRCLE-6" data-name="CIRCLE"><path class="cls-6" d="M46.88,324.35a13.48,13.48,0,1,1,13.48,13.48,13.48,13.48,0,0,1-13.48-13.48Z"/></g><g id="LWPOLYLINE-18" data-name="LWPOLYLINE"><polyline class="cls-6" points="61.85 81.35 144.35 81.35 144.35 153.35 61.85 153.35"/></g><g id="LWPOLYLINE-19" data-name="LWPOLYLINE"><polyline class="cls-6" points="144.35 81.35 61.85 117.35 144.35 153.35"/></g></g><g id="P-PLUMBING_FIXTURES" data-name="P-PLUMBING FIXTURES"><g id="CIRCLE-7" data-name="CIRCLE"><path class="cls-7" d="M32.43,202.85a3.09,3.09,0,1,1,3.09,3.1,3.09,3.09,0,0,1-3.09-3.1Z"/></g><g id="LINE-6" data-name="LINE"><line class="cls-7" x1="32.81" y1="204.35" x2="10.35" y2="204.35"/></g><g id="LINE-7" data-name="LINE"><line class="cls-7" x1="10.35" y1="201.35" x2="32.81" y2="201.35"/></g><g id="LINE-8" data-name="LINE"><line class="cls-7" x1="19.03" y1="203.6" x2="7.86" y2="203.6"/></g><g id="LINE-9" data-name="LINE"><line class="cls-7" x1="19.03" y1="203.6" x2="19.03" y2="202.1"/></g><g id="LINE-10" data-name="LINE"><line class="cls-7" x1="19.03" y1="202.1" x2="7.86" y2="202.1"/></g><g id="ARC"><path class="cls-7" d="M10.67,202.1a2.91,2.91,0,1,0,0,1.5"/></g><g id="ARC-2" data-name="ARC"><path class="cls-7" d="M7.86,202.1a.75.75,0,0,0,0,1.5"/></g></g><g id="A-Cabinetry"><g id="LINE-11" data-name="LINE"><line class="cls-8" x1="0.35" y1="252.35" x2="72.35" y2="252.35"/></g><g id="LINE-12" data-name="LINE"><line class="cls-8" x1="0.35" y1="153.35" x2="72.35" y2="153.35"/></g><g id="LWPOLYLINE-20" data-name="LWPOLYLINE"><line class="cls-8" x1="72.35" y1="252.35" x2="72.35" y2="153.35"/></g><g id="LWPOLYLINE-21" data-name="LWPOLYLINE"><polyline class="cls-8" points="0.35 558.35 72.35 558.35 72.35 612.35 0.35 612.35"/></g><g id="LWPOLYLINE-22" data-name="LWPOLYLINE"><polyline class="cls-8" points="0.35 396.35 72.35 396.35 72.35 450.35 0.35 450.35"/></g><g id="LWPOLYLINE-23" data-name="LWPOLYLINE"><polyline class="cls-8" points="0.35 252.35 72.35 252.35 72.35 306.35 0.35 306.35"/></g><g id="LWPOLYLINE-24" data-name="LWPOLYLINE"><polyline class="cls-8" points="0.35 9.35 72.35 9.35 72.35 81.35 0.35 81.35"/></g><g id="LWPOLYLINE-25" data-name="LWPOLYLINE"><polyline class="cls-8" points="315.35 252.35 243.35 252.35 243.35 162.35 315.35 162.35"/></g><g id="LWPOLYLINE-26" data-name="LWPOLYLINE"><line class="cls-8" x1="315.35" y1="162.35" x2="243.35" y2="252.35"/></g><g id="LWPOLYLINE-27" data-name="LWPOLYLINE"><line class="cls-8" x1="315.35" y1="252.35" x2="243.35" y2="162.35"/></g><g id="LINE-13" data-name="LINE"><line class="cls-8" x1="243.35" y1="610.1" x2="243.35" y2="497.6"/></g><g id="LWPOLYLINE-28" data-name="LWPOLYLINE"><polygon class="cls-8" points="243.35 495.35 243.35 497.6 313.1 497.6 313.1 610.1 243.35 610.1 243.35 612.35 315.35 612.35 315.35 495.35 243.35 495.35"/></g><g id="LWPOLYLINE-29" data-name="LWPOLYLINE"><rect class="cls-8" x="196.14" y="517.16" width="56.25" height="2.25" transform="translate(-300.8 310.38) rotate(-45)"/></g><g id="LWPOLYLINE-30" data-name="LWPOLYLINE"><rect class="cls-8" x="223.14" y="561.3" width="2.25" height="56.25" transform="translate(-351.1 331.22) rotate(-45)"/></g><g id="ARC-3" data-name="ARC"><path class="cls-8" d="M203.37,537.43A56,56,0,0,0,243,553.85"/></g><g id="ARC-4" data-name="ARC"><path class="cls-8" d="M243,553.85a56.06,56.06,0,0,0-39.64,16.42"/></g><g id="LWPOLYLINE-31" data-name="LWPOLYLINE"><polyline class="cls-8" points="315.35 378.35 243.35 378.35 243.35 324.35 315.35 324.35"/></g><g id="LWPOLYLINE-32" data-name="LWPOLYLINE"><polyline class="cls-8" points="315.35 162.35 243.35 162.35 243.35 90.35 315.35 90.35"/></g><g id="LWPOLYLINE-33" data-name="LWPOLYLINE"><polyline class="cls-8" points="315.35 324.35 243.35 324.35 243.35 252.35 315.35 252.35"/></g><g id="LINE-14" data-name="LINE"><line class="cls-8" x1="243.35" y1="493.1" x2="243.35" y2="380.6"/></g><g id="LWPOLYLINE-34" data-name="LWPOLYLINE"><polygon class="cls-8" points="243.35 378.35 243.35 380.6 313.1 380.6 313.1 493.1 243.35 493.1 243.35 495.35 315.35 495.35 315.35 378.35 243.35 378.35"/></g><g id="LWPOLYLINE-35" data-name="LWPOLYLINE"><rect class="cls-8" x="196.14" y="400.16" width="56.25" height="2.25" transform="translate(-218.07 276.11) rotate(-45)"/></g><g id="LWPOLYLINE-36" data-name="LWPOLYLINE"><rect class="cls-8" x="223.14" y="444.3" width="2.25" height="56.25" transform="translate(-268.37 296.95) rotate(-45)"/></g><g id="ARC-5" data-name="ARC"><path class="cls-8" d="M203.37,420.43A56,56,0,0,0,243,436.85"/></g><g id="ARC-6" data-name="ARC"><path class="cls-8" d="M243,436.85a56.06,56.06,0,0,0-39.64,16.42"/></g><g id="LWPOLYLINE-37" data-name="LWPOLYLINE"><polyline class="cls-8" points="315.35 90.35 243.35 90.35 243.35 18.35 315.35 18.35"/></g></g><g id="A-Walls"><g id="LWPOLYLINE-38" data-name="LWPOLYLINE"><line class="cls-9" x1="0.35" y1="612.35" x2="0.35" y2="0.35"/></g><g id="LWPOLYLINE-39" data-name="LWPOLYLINE"><line class="cls-9" x1="198.35" y1="612.35" x2="198.35" y2="0.35"/></g></g><g id="A-Align"><g id="LWPOLYLINE-40" data-name="LWPOLYLINE"><polygon class="cls-10" points="198.35 612.35 315.35 612.35 315.35 0.35 198.35 0.35 0.35 0.35 0.35 612.35 198.35 612.35"/></g></g></svg>