<svg xmlns="http://www.w3.org/2000/svg" viewBox="0 0 234.71 358.46"><defs><style>.cls-1{fill:#ccc;}.cls-2,.cls-3,.cls-4{fill:none;}.cls-2{stroke:#999;stroke-miterlimit:10;stroke-width:0.5px;stroke-dasharray:15 5;}.cls-3,.cls-4{stroke:#000;stroke-linecap:round;stroke-linejoin:round;}.cls-4{stroke-width:0.25px;stroke-dasharray:13 7;}</style></defs><g id="DEFPOINTS"><g id="LWPOLYLINE"><rect class="cls-1" x="0.35" y="0.35" width="167.25" height="267.75"/></g></g><g id="A-FHA"><g id="LWPOLYLINE-2" data-name="LWPOLYLINE"><rect class="cls-2" x="66.35" y="124.1" width="168" height="144"/></g><g id="LWPOLYLINE-3" data-name="LWPOLYLINE"><line class="cls-2" x1="234.35" y1="166.1" x2="171.35" y2="166.1"/></g><g id="LWPOLYLINE-4" data-name="LWPOLYLINE"><rect class="cls-2" x="0.35" y="178.1" width="144" height="90"/></g></g><g id="A-Furniture"><g id="CIRCLE"><path class="cls-3" d="M205.88,81.23a1.5,1.5,0,1,1,1.5,1.5,1.5,1.5,0,0,1-1.5-1.5Z"/></g><g id="ARC"><path class="cls-3" d="M223.91,83.34A3.07,3.07,0,1,0,224,79l-.13.12"/></g><g id="LWPOLYLINE-5" data-name="LWPOLYLINE"><line class="cls-3" x1="226.14" y1="83.34" x2="213.32" y2="83.34"/></g><g id="LWPOLYLINE-6" data-name="LWPOLYLINE"><line class="cls-3" x1="226.14" y1="79.13" x2="213.32" y2="79.13"/></g><g id="LWPOLYLINE-7" data-name="LWPOLYLINE"><line class="cls-3" x1="213.32" y1="83.34" x2="213.32" y2="79.13"/></g><g id="LWPOLYLINE-8" data-name="LWPOLYLINE"><line class="cls-3" x1="226.14" y1="83.34" x2="226.14" y2="79.13"/></g><g id="LWPOLYLINE-9" data-name="LWPOLYLINE"><rect class="cls-3" x="0.35" y="0.35" width="234" height="357.75"/></g></g><g id="A-PLFX"><g id="LWPOLYLINE-10" data-name="LWPOLYLINE"><rect class="cls-3" x="0.35" y="268.1" width="180" height="90"/></g><g id="LWPOLYLINE-11" data-name="LWPOLYLINE"><path class="cls-3" d="M168.35,339.86V286.34a8.28,8.28,0,0,0-8.28-8.28H37.31a24,24,0,0,0-24,24v22.08a24,24,0,0,0,24,24H160.07A8.27,8.27,0,0,0,168.35,339.86Z"/></g><g id="CIRCLE-2" data-name="CIRCLE"><path class="cls-3" d="M156.7,313.22a2.59,2.59,0,1,1,2.59,2.59,2.59,2.59,0,0,1-2.59-2.59Z"/></g><g id="LWPOLYLINE-12" data-name="LWPOLYLINE"><polyline class="cls-3" points="176.99 313.1 169.79 309.02 169.79 317.42 176.99 313.1"/></g><g id="LWPOLYLINE-13" data-name="LWPOLYLINE"><rect class="cls-3" x="208.71" y="187.16" width="22.64" height="53.89" rx="3"/></g><g id="LWPOLYLINE-14" data-name="LWPOLYLINE"><path class="cls-3" d="M144.56,214.1v2.52a3,3,0,0,0,.3,1.32,32.12,32.12,0,0,0,29.22,17.95,3.39,3.39,0,0,0,.9-.15l19-6.22a3,3,0,0,1,.93-.15h13.81"/></g><g id="LWPOLYLINE-15" data-name="LWPOLYLINE"><path class="cls-3" d="M144.56,214.1v-2.51a3,3,0,0,1,.3-1.32,32.1,32.1,0,0,1,29.22-18,2.74,2.74,0,0,1,.9.15l19,6.22a3,3,0,0,0,.93.15h13.81"/></g><g id="LWPOLYLINE-16" data-name="LWPOLYLINE"><path class="cls-3" d="M218.41,83.34v23.09a3,3,0,0,1-3,3H183.25a3,3,0,0,1-3-3V56a3,3,0,0,1,3-3h32.16a3,3,0,0,1,3,3v23.1"/></g></g><g id="A-Casework"><g id="LWPOLYLINE-17" data-name="LWPOLYLINE"><line class="cls-4" x1="171.35" y1="162.35" x2="234.35" y2="162.35"/></g><g id="LWPOLYLINE-18" data-name="LWPOLYLINE"><line class="cls-4" x1="234.35" y1="36.35" x2="171.35" y2="36.35"/></g><g id="LWPOLYLINE-19" data-name="LWPOLYLINE"><line class="cls-4" x1="234.35" y1="126.35" x2="171.35" y2="126.35"/></g><g id="LWPOLYLINE-20" data-name="LWPOLYLINE"><line class="cls-4" x1="171.35" y1="36.35" x2="171.35" y2="126.35"/></g><g id="LWPOLYLINE-21" data-name="LWPOLYLINE"><line class="cls-4" x1="171.35" y1="162.35" x2="234.35" y2="162.35"/></g><g id="LWPOLYLINE-22" data-name="LWPOLYLINE"><rect class="cls-4" x="171.35" y="126.35" width="63" height="36"/></g><g id="LWPOLYLINE-23" data-name="LWPOLYLINE"><rect class="cls-4" x="171.35" y="0.35" width="63" height="36"/></g></g><g id="A-Counter"><g id="LWPOLYLINE-24" data-name="LWPOLYLINE"><polyline class="cls-3" points="167.6 162.35 167.6 166.1 234.35 166.1"/></g><g id="LWPOLYLINE-25" data-name="LWPOLYLINE"><line class="cls-3" x1="167.6" y1="126.35" x2="167.6" y2="36.35"/></g><g id="LWPOLYLINE-26" data-name="LWPOLYLINE"><line class="cls-3" x1="167.6" y1="162.35" x2="167.6" y2="124.1"/></g><g id="LWPOLYLINE-27" data-name="LWPOLYLINE"><line class="cls-3" x1="167.6" y1="36.35" x2="167.6" y2="-1.9"/></g></g><g id="A-Walls"><g id="LWPOLYLINE-28" data-name="LWPOLYLINE"><line class="cls-3" x1="180.35" y1="358.1" x2="180.35" y2="268.1"/></g><g id="LWPOLYLINE-29" data-name="LWPOLYLINE"><line class="cls-3" x1="198.35" y1="358.1" x2="198.35" y2="278.6"/></g><g id="LWPOLYLINE-30" data-name="LWPOLYLINE"><line class="cls-3" x1="180.35" y1="268.1" x2="234.35" y2="268.1"/></g><g id="LWPOLYLINE-31" data-name="LWPOLYLINE"><line class="cls-3" x1="198.35" y1="278.6" x2="234.35" y2="278.6"/></g></g></svg>