<svg xmlns="http://www.w3.org/2000/svg" viewBox="0 0 315.71 468.71"><defs><style>.cls-1{fill:#e6e6e6;}.cls-1,.cls-2,.cls-3,.cls-4,.cls-9{stroke:#000;}.cls-1,.cls-10,.cls-2,.cls-3,.cls-4,.cls-5,.cls-6,.cls-7,.cls-8,.cls-9{stroke-linecap:round;stroke-linejoin:round;}.cls-1,.cls-10,.cls-2,.cls-7{stroke-width:0.71px;}.cls-2{fill:#fff;}.cls-10,.cls-3,.cls-4,.cls-5,.cls-6,.cls-7,.cls-8,.cls-9{fill:none;}.cls-3,.cls-5{stroke-width:0.5px;}.cls-4,.cls-6,.cls-8{stroke-width:0.25px;}.cls-4,.cls-5{stroke-dasharray:5 5;}.cls-5,.cls-6{stroke:#666;}.cls-6{stroke-dasharray:9 8;}.cls-7{stroke:silver;}.cls-8{stroke:#333;stroke-dasharray:8 8;}.cls-10{stroke:#ff7f00;}</style></defs><g id="A-Counter"><g id="LWPOLYLINE"><polyline class="cls-1" points="0.35 180.35 72.35 180.35 72.35 0.35 0.35 0.35"/></g><g id="LWPOLYLINE-2" data-name="LWPOLYLINE"><polyline class="cls-1" points="0.35 468.35 76.1 468.35 76.1 387.35 0.35 387.35"/></g><g id="LWPOLYLINE-3" data-name="LWPOLYLINE"><polyline class="cls-1" points="315.35 378.35 239.6 378.35 239.6 117.35 315.35 117.35"/></g></g><g id="Layer_13" data-name="Layer 13"><g id="LWPOLYLINE-4" data-name="LWPOLYLINE"><polyline class="cls-2" points="16.86 60.35 16.86 99.35 67.85 99.35 67.85 18.35 16.86 18.35 16.86 57.35"/></g></g><g id="A-Appliances"><g id="LWPOLYLINE-5" data-name="LWPOLYLINE"><polyline class="cls-3" points="92.98 339.35 103.48 339.35 103.48 376.85 6.35 376.85 6.35 278.6 103.48 278.6 103.48 338.6 92.98 338.6"/></g><g id="LINE"><line class="cls-3" x1="92.98" y1="278.6" x2="92.98" y2="376.85"/></g><g id="LWPOLYLINE-6" data-name="LWPOLYLINE"><rect class="cls-3" x="103.48" y="333.55" width="6.75" height="4.12"/></g><g id="LWPOLYLINE-7" data-name="LWPOLYLINE"><rect class="cls-3" x="103.48" y="340.29" width="6.75" height="4.13"/></g><g id="LINE-2" data-name="LINE"><line class="cls-3" x1="76.85" y1="270.35" x2="76.85" y2="180.35"/></g><g id="LINE-3" data-name="LINE"><line class="cls-3" x1="76.85" y1="180.35" x2="0.35" y2="180.35"/></g><g id="LINE-4" data-name="LINE"><line class="cls-3" x1="76.85" y1="270.35" x2="0.35" y2="270.35"/></g><g id="LINE-5" data-name="LINE"><line class="cls-3" x1="0.35" y1="180.35" x2="0.35" y2="270.35"/></g><g id="LWPOLYLINE-8" data-name="LWPOLYLINE"><polyline class="cls-3" points="76.85 180.35 90.35 180.35 90.35 270.35 76.85 270.35"/></g><g id="LWPOLYLINE-9" data-name="LWPOLYLINE"><polyline class="cls-3" points="76.85 184.85 81.35 184.85 81.35 265.85 76.85 265.85"/></g><g id="LWPOLYLINE-10" data-name="LWPOLYLINE"><rect class="cls-3" x="0.35" y="108.35" width="70.12" height="72"/></g><g id="LWPOLYLINE-11" data-name="LWPOLYLINE"><polyline class="cls-3" points="70.48 180.35 77.6 180.35 77.6 108.35 70.48 108.35"/></g></g><g id="FAIR_HOUSING" data-name="FAIR HOUSING"><g id="LWPOLYLINE-12" data-name="LWPOLYLINE"><rect class="cls-4" x="106.48" y="251.6" width="90" height="144"/></g><g id="LWPOLYLINE-13" data-name="LWPOLYLINE"><rect class="cls-4" x="93.35" y="153.35" width="90" height="144"/></g><g id="LWPOLYLINE-14" data-name="LWPOLYLINE"><rect class="cls-4" x="79.1" y="-13.15" width="90" height="144"/></g><g id="LWPOLYLINE-15" data-name="LWPOLYLINE"><rect class="cls-4" x="78.35" y="72.35" width="90" height="144"/></g></g><g id="A-Cabinetry-Upper"><g id="LWPOLYLINE-16" data-name="LWPOLYLINE"><polyline class="cls-5" points="36.35 180.35 45.35 189.35 45.35 261.35 36.35 270.35"/></g></g><g id="A-Appliances_Detail" data-name="A-Appliances Detail"><g id="CIRCLE"><path class="cls-6" d="M10.86,252.35a10.5,10.5,0,1,1,10.49,10.5,10.49,10.49,0,0,1-10.49-10.5Z"/></g><g id="CIRCLE-2" data-name="CIRCLE"><path class="cls-6" d="M7.88,252.35a13.48,13.48,0,1,1,13.47,13.48A13.47,13.47,0,0,1,7.88,252.35Z"/></g><g id="CIRCLE-3" data-name="CIRCLE"><path class="cls-6" d="M10.86,198.35a10.5,10.5,0,1,1,10.49,10.5,10.49,10.49,0,0,1-10.49-10.5Z"/></g><g id="CIRCLE-4" data-name="CIRCLE"><path class="cls-6" d="M49.86,252.35a10.5,10.5,0,1,1,10.5,10.5,10.5,10.5,0,0,1-10.5-10.5Z"/></g><g id="CIRCLE-5" data-name="CIRCLE"><path class="cls-6" d="M49.86,198.35a10.5,10.5,0,1,1,10.5,10.5,10.5,10.5,0,0,1-10.5-10.5Z"/></g><g id="CIRCLE-6" data-name="CIRCLE"><path class="cls-6" d="M46.88,198.35a13.48,13.48,0,1,1,13.48,13.48,13.48,13.48,0,0,1-13.48-13.48Z"/></g><g id="LWPOLYLINE-17" data-name="LWPOLYLINE"><polyline class="cls-6" points="61.85 108.35 144.35 108.35 144.35 180.35 61.85 180.35"/></g><g id="LWPOLYLINE-18" data-name="LWPOLYLINE"><polyline class="cls-6" points="144.35 108.35 61.85 144.35 144.35 180.35"/></g></g><g id="P-PLUMBING_FIXTURES" data-name="P-PLUMBING FIXTURES"><g id="CIRCLE-7" data-name="CIRCLE"><path class="cls-7" d="M32.43,58.85A3.09,3.09,0,1,1,35.52,62a3.09,3.09,0,0,1-3.09-3.1Z"/></g><g id="LINE-6" data-name="LINE"><line class="cls-7" x1="32.81" y1="60.35" x2="10.35" y2="60.35"/></g><g id="LINE-7" data-name="LINE"><line class="cls-7" x1="10.35" y1="57.35" x2="32.81" y2="57.35"/></g><g id="LINE-8" data-name="LINE"><line class="cls-7" x1="19.03" y1="59.6" x2="7.86" y2="59.6"/></g><g id="LINE-9" data-name="LINE"><line class="cls-7" x1="19.03" y1="59.6" x2="19.03" y2="58.1"/></g><g id="LINE-10" data-name="LINE"><line class="cls-7" x1="19.03" y1="58.1" x2="7.86" y2="58.1"/></g><g id="ARC"><path class="cls-7" d="M10.67,58.1a2.91,2.91,0,1,0,0,1.5"/></g><g id="ARC-2" data-name="ARC"><path class="cls-7" d="M7.86,58.1a.75.75,0,0,0,0,1.5"/></g></g><g id="A-Cabinetry"><g id="LINE-11" data-name="LINE"><line class="cls-8" x1="0.35" y1="108.35" x2="72.35" y2="108.35"/></g><g id="LINE-12" data-name="LINE"><line class="cls-8" x1="0.35" y1="9.35" x2="72.35" y2="9.35"/></g><g id="LWPOLYLINE-19" data-name="LWPOLYLINE"><line class="cls-8" x1="72.35" y1="108.35" x2="72.35" y2="9.35"/></g><g id="LWPOLYLINE-20" data-name="LWPOLYLINE"><polyline class="cls-8" points="0.35 387.35 72.35 387.35 72.35 468.35 0.35 468.35"/></g><g id="LWPOLYLINE-21" data-name="LWPOLYLINE"><polyline class="cls-8" points="315.35 306.35 243.35 306.35 243.35 189.35 315.35 189.35"/></g><g id="LWPOLYLINE-22" data-name="LWPOLYLINE"><line class="cls-8" x1="315.35" y1="189.35" x2="243.35" y2="306.35"/></g><g id="LWPOLYLINE-23" data-name="LWPOLYLINE"><line class="cls-8" x1="315.35" y1="306.35" x2="243.35" y2="189.35"/></g><g id="LINE-13" data-name="LINE"><line class="cls-8" x1="243.35" y1="466.1" x2="243.35" y2="380.6"/></g><g id="LWPOLYLINE-24" data-name="LWPOLYLINE"><polygon class="cls-8" points="243.35 378.35 243.35 380.6 313.1 380.6 313.1 466.1 243.35 466.1 243.35 468.35 315.35 468.35 315.35 378.35 243.35 378.35"/></g><g id="LWPOLYLINE-25" data-name="LWPOLYLINE"><rect class="cls-8" x="207.66" y="395.39" width="42.75" height="2.25" transform="translate(-213.29 278.09) rotate(-45)"/></g><g id="LWPOLYLINE-26" data-name="LWPOLYLINE"><rect class="cls-8" x="227.91" y="428.82" width="2.25" height="42.75" transform="translate(-251.25 293.81) rotate(-45)"/></g><g id="ARC-3" data-name="ARC"><path class="cls-8" d="M213.55,410.72A43.1,43.1,0,0,0,244,423.35"/></g><g id="ARC-4" data-name="ARC"><path class="cls-8" d="M244,423.35A43.11,43.11,0,0,0,213.55,436"/></g><g id="LWPOLYLINE-27" data-name="LWPOLYLINE"><polyline class="cls-8" points="315.35 378.35 243.35 378.35 243.35 306.35 315.35 306.35"/></g><g id="LWPOLYLINE-28" data-name="LWPOLYLINE"><polyline class="cls-8" points="315.35 189.35 243.35 189.35 243.35 117.35 315.35 117.35"/></g><g id="LINE-14" data-name="LINE"><line class="cls-8" x1="243.35" y1="115.1" x2="243.35" y2="11.6"/></g><g id="LWPOLYLINE-29" data-name="LWPOLYLINE"><polygon class="cls-8" points="243.35 9.35 243.35 11.6 313.1 11.6 313.1 115.1 243.35 115.1 243.35 117.35 315.35 117.35 315.35 9.35 243.35 9.35"/></g><g id="LWPOLYLINE-30" data-name="LWPOLYLINE"><rect class="cls-8" x="199.98" y="29.57" width="51.75" height="2.25" transform="translate(44.45 168.69) rotate(-45)"/></g><g id="LWPOLYLINE-31" data-name="LWPOLYLINE"><rect class="cls-8" x="224.73" y="70.14" width="2.25" height="51.75" transform="translate(-1.74 187.82) rotate(-45)"/></g><g id="ARC-5" data-name="ARC"><path class="cls-8" d="M206.76,48.2a51.78,51.78,0,0,0,36.59,15.15"/></g><g id="ARC-6" data-name="ARC"><path class="cls-8" d="M243.35,63.35a51.78,51.78,0,0,0-36.59,15.16"/></g></g><g id="A-Walls"><g id="LWPOLYLINE-32" data-name="LWPOLYLINE"><line class="cls-9" x1="0.35" y1="468.35" x2="0.35" y2="0.35"/></g></g><g id="A-Align"><g id="LWPOLYLINE-33" data-name="LWPOLYLINE"><polygon class="cls-10" points="198.35 468.35 315.35 468.35 315.35 0.35 198.35 0.35 0.35 0.35 0.35 468.35 198.35 468.35"/></g></g></svg>