<svg xmlns="http://www.w3.org/2000/svg" viewBox="0 0 180.71 394.46"><defs><style>.cls-1{fill:#ccc;}.cls-2,.cls-3,.cls-4{fill:none;}.cls-2{stroke:#999;stroke-miterlimit:10;stroke-width:0.5px;stroke-dasharray:15 5;}.cls-3,.cls-4{stroke:#000;stroke-linecap:round;stroke-linejoin:round;}.cls-4{stroke-width:0.25px;stroke-dasharray:13 7;}</style></defs><g id="DEFPOINTS"><g id="LWPOLYLINE"><rect class="cls-1" x="0.35" y="0.35" width="113.25" height="303.75"/></g></g><g id="A-FHA"><g id="LWPOLYLINE-2" data-name="LWPOLYLINE"><rect class="cls-2" x="12.35" y="160.1" width="168" height="144"/></g><g id="LWPOLYLINE-3" data-name="LWPOLYLINE"><line class="cls-2" x1="180.35" y1="202.1" x2="117.35" y2="202.1"/></g><g id="LWPOLYLINE-4" data-name="LWPOLYLINE"><rect class="cls-2" x="0.35" y="160.1" width="90" height="144"/></g></g><g id="A-Furniture"><g id="CIRCLE"><path class="cls-3" d="M151.88,54.23a1.5,1.5,0,1,1,1.5,1.5,1.5,1.5,0,0,1-1.5-1.5Z"/></g><g id="ARC"><path class="cls-3" d="M169.91,56.34A3.07,3.07,0,1,0,170,52l-.13.12"/></g><g id="LWPOLYLINE-5" data-name="LWPOLYLINE"><line class="cls-3" x1="172.14" y1="56.34" x2="159.32" y2="56.34"/></g><g id="LWPOLYLINE-6" data-name="LWPOLYLINE"><line class="cls-3" x1="172.14" y1="52.13" x2="159.32" y2="52.13"/></g><g id="LWPOLYLINE-7" data-name="LWPOLYLINE"><line class="cls-3" x1="159.32" y1="56.34" x2="159.32" y2="52.13"/></g><g id="LWPOLYLINE-8" data-name="LWPOLYLINE"><line class="cls-3" x1="172.14" y1="56.34" x2="172.14" y2="52.13"/></g><g id="LWPOLYLINE-9" data-name="LWPOLYLINE"><rect class="cls-3" x="0.35" y="0.35" width="180" height="393.75"/></g><g id="CIRCLE-2" data-name="CIRCLE"><path class="cls-3" d="M151.88,144.23a1.5,1.5,0,1,1,1.5,1.5,1.5,1.5,0,0,1-1.5-1.5Z"/></g><g id="ARC-2" data-name="ARC"><path class="cls-3" d="M169.91,146.34A3.07,3.07,0,1,0,170,142l-.13.12"/></g><g id="LWPOLYLINE-10" data-name="LWPOLYLINE"><line class="cls-3" x1="172.14" y1="146.34" x2="159.32" y2="146.34"/></g><g id="LWPOLYLINE-11" data-name="LWPOLYLINE"><line class="cls-3" x1="172.14" y1="142.13" x2="159.32" y2="142.13"/></g><g id="LWPOLYLINE-12" data-name="LWPOLYLINE"><line class="cls-3" x1="159.32" y1="146.34" x2="159.32" y2="142.13"/></g><g id="LWPOLYLINE-13" data-name="LWPOLYLINE"><line class="cls-3" x1="172.14" y1="146.34" x2="172.14" y2="142.13"/></g></g><g id="A-PLFX"><g id="LWPOLYLINE-14" data-name="LWPOLYLINE"><rect class="cls-3" x="0.35" y="304.1" width="180" height="90"/></g><g id="LWPOLYLINE-15" data-name="LWPOLYLINE"><path class="cls-3" d="M168.35,375.86V322.34a8.28,8.28,0,0,0-8.28-8.28H37.31a24,24,0,0,0-24,24v22.08a24,24,0,0,0,24,24H160.07A8.27,8.27,0,0,0,168.35,375.86Z"/></g><g id="CIRCLE-3" data-name="CIRCLE"><path class="cls-3" d="M156.7,349.22a2.59,2.59,0,1,1,2.59,2.59,2.59,2.59,0,0,1-2.59-2.59Z"/></g><g id="LWPOLYLINE-16" data-name="LWPOLYLINE"><polyline class="cls-3" points="176.99 349.1 169.79 345.02 169.79 353.42 176.99 349.1"/></g><g id="LWPOLYLINE-17" data-name="LWPOLYLINE"><rect class="cls-3" x="154.71" y="223.16" width="22.64" height="53.89" rx="3"/></g><g id="LWPOLYLINE-18" data-name="LWPOLYLINE"><path class="cls-3" d="M90.56,250.1v2.52a3,3,0,0,0,.3,1.32,32.12,32.12,0,0,0,29.22,17.95,3.39,3.39,0,0,0,.9-.15l19-6.22a3,3,0,0,1,.93-.15h13.81"/></g><g id="LWPOLYLINE-19" data-name="LWPOLYLINE"><path class="cls-3" d="M90.56,250.1v-2.51a3,3,0,0,1,.3-1.32,32.1,32.1,0,0,1,29.22-18,2.74,2.74,0,0,1,.9.15l19,6.22a3,3,0,0,0,.93.15h13.81"/></g><g id="LWPOLYLINE-20" data-name="LWPOLYLINE"><path class="cls-3" d="M164.41,56.34V79.43a3,3,0,0,1-3,3H129.25a3,3,0,0,1-3-3V29a3,3,0,0,1,3-3h32.16a3,3,0,0,1,3,3v23.1"/></g><g id="LWPOLYLINE-21" data-name="LWPOLYLINE"><path class="cls-3" d="M164.41,146.34v23.09a3,3,0,0,1-3,3H129.25a3,3,0,0,1-3-3V119a3,3,0,0,1,3-3h32.16a3,3,0,0,1,3,3v23.1"/></g></g><g id="A-Casework"><g id="LWPOLYLINE-22" data-name="LWPOLYLINE"><line class="cls-4" x1="117.35" y1="198.35" x2="180.35" y2="198.35"/></g><g id="LWPOLYLINE-23" data-name="LWPOLYLINE"><line class="cls-4" x1="180.35" y1="9.35" x2="117.35" y2="9.35"/></g><g id="LWPOLYLINE-24" data-name="LWPOLYLINE"><line class="cls-4" x1="180.35" y1="99.35" x2="117.35" y2="99.35"/></g><g id="LWPOLYLINE-25" data-name="LWPOLYLINE"><line class="cls-4" x1="117.35" y1="9.35" x2="117.35" y2="99.35"/></g><g id="LWPOLYLINE-26" data-name="LWPOLYLINE"><line class="cls-4" x1="180.35" y1="99.35" x2="117.35" y2="99.35"/></g><g id="LWPOLYLINE-27" data-name="LWPOLYLINE"><line class="cls-4" x1="180.35" y1="189.35" x2="117.35" y2="189.35"/></g><g id="LWPOLYLINE-28" data-name="LWPOLYLINE"><line class="cls-4" x1="117.35" y1="99.35" x2="117.35" y2="189.35"/></g><g id="LWPOLYLINE-29" data-name="LWPOLYLINE"><line class="cls-4" x1="117.35" y1="198.35" x2="117.35" y2="189.35"/></g></g><g id="A-Counter"><g id="LWPOLYLINE-30" data-name="LWPOLYLINE"><polyline class="cls-3" points="113.6 198.35 113.6 202.1 180.35 202.1"/></g><g id="LWPOLYLINE-31" data-name="LWPOLYLINE"><line class="cls-3" x1="113.6" y1="99.35" x2="113.6" y2="9.35"/></g><g id="LWPOLYLINE-32" data-name="LWPOLYLINE"><line class="cls-3" x1="113.6" y1="198.35" x2="113.6" y2="142.1"/></g><g id="LWPOLYLINE-33" data-name="LWPOLYLINE"><line class="cls-3" x1="113.6" y1="54.35" x2="113.6" y2="-1.9"/></g><g id="LWPOLYLINE-34" data-name="LWPOLYLINE"><line class="cls-3" x1="113.6" y1="189.35" x2="113.6" y2="99.35"/></g></g></svg>